<svg width="112" height="112" viewBox="0 0 112 112" fill="none" xmlns="http://www.w3.org/2000/svg">
<rect x="1" y="1" width="109.025" height="109.025" rx="11.3361" fill="url(#paint0_linear_172_161)"/>
<rect x="1" y="1" width="109.025" height="109.025" rx="11.3361" stroke="#1B2B02" stroke-width="2" style="mix-blend-mode:overlay"/>
<g filter="url(#filter0_d_172_161)">
<path d="M83.4782 40.0223C82.7078 39.4384 81.8806 38.8663 81.0007 38.3079C80.1735 37.7848 79.3014 37.2754 78.3863 36.7797C78.3413 36.7562 78.2983 36.7327 78.2533 36.7092L78.2689 36.0783L78.3765 31.5838L78.4821 27.1735C78.4821 21.9012 72.2462 18.9584 68.0127 22.2362L67.1601 22.8965C64.1702 25.2103 59.8937 25.0281 57.1209 22.4713L54.3246 19.891C51.0825 16.9012 45.7578 18.1943 44.3284 22.3165L42.0621 29.5814C40.9807 29.699 39.9365 29.8499 38.9373 30.034C31.7823 31.3585 26.8312 34.3992 25.9571 38.7253C25.6775 40.1085 25.8319 41.5329 26.3716 42.9631C27.3318 45.5082 29.5082 48.065 32.6134 50.4298C34.344 51.7484 36.3659 53.0082 38.6244 54.17C43.2607 56.5544 48.9061 58.5333 55.1244 59.795C60.8792 60.9647 66.4209 61.3742 71.335 61.1195C73.8497 60.9902 76.1981 60.6865 78.3296 60.2222C84.1372 58.9565 88.3179 56.4957 89.761 53.0944C89.9468 52.6653 90.0857 52.2186 90.1776 51.7602C90.9578 47.9024 88.357 43.7253 83.4802 40.0223H83.4782ZM40.836 33.5117L42.3241 34.3169L45.2514 35.9039C45.5447 36.0626 45.838 36.2194 46.1352 36.3722C54.0841 40.4964 62.909 42.6496 71.8727 42.6418H72.4437L75.7269 42.6379H78.1106V42.634H78.1184L77.9913 48.208L77.9717 49.0897L76.5208 49.0819L70.5626 49.0505C69.9544 49.0505 69.3463 49.0407 68.7401 49.0211C61.0924 48.7782 53.5835 46.9639 46.673 43.6959C45.75 43.2629 44.8388 42.8025 43.9393 42.3146L40.4234 40.4083L39.8466 40.0967L38.9353 39.603L40.2494 35.3887L40.836 33.5117Z" fill="url(#paint1_linear_172_161)"/>
<path d="M44.5615 22.3972C45.9312 18.4476 51.0423 17.1998 54.1572 20.072L56.9531 22.6531H56.9541C59.7263 25.2089 63.9527 25.4653 67.0186 23.3083L67.3115 23.0916L68.1641 22.4314C72.1807 19.3217 78.0491 22.0302 78.2314 26.9382L78.2354 27.1736L78.1299 31.5779L78.0225 36.072L78.0068 36.7029L78.0029 36.8562L78.1387 36.9275C78.1599 36.9386 78.1811 36.9499 78.2031 36.9617C78.2238 36.9727 78.2462 36.9842 78.2686 36.9958V36.9968C79.1788 37.4899 80.0463 37.9957 80.8682 38.5154V38.5164C81.7427 39.0713 82.5646 39.6392 83.3291 40.2185L83.3955 40.2693H83.3965C88.0619 43.8309 90.5256 47.7627 89.9971 51.3621L89.9355 51.7117C89.847 52.1534 89.7129 52.584 89.5342 52.9968V52.9978C88.1399 56.2839 84.0645 58.7199 78.2773 59.9812C76.4252 60.3847 74.4057 60.6668 72.2529 60.8171L71.3223 60.8728C66.4308 61.1263 60.9099 60.7193 55.1738 59.5535C48.9755 58.2958 43.3515 56.3239 38.7373 53.9509C36.4897 52.7947 34.4801 51.5417 32.7627 50.2332C29.677 47.8832 27.54 45.3607 26.6025 42.8757C26.0768 41.4825 25.9301 40.1056 26.1992 38.7742C26.6194 36.6946 28.0223 34.903 30.2266 33.4607C32.4321 32.0176 35.4254 30.9355 38.9824 30.2771C39.9751 30.0942 41.0132 29.9438 42.0889 29.8269L42.249 29.8093L42.2979 29.655L44.5615 22.3972ZM40.6006 33.4382L40.0137 35.3152L38.7002 39.53L38.6396 39.7234L38.8174 39.8201L39.7295 40.3132V40.3142L40.3066 40.6257V40.6248L43.8213 42.532V42.531C44.725 43.0211 45.641 43.4846 46.5684 43.9197V43.9187C53.5093 47.201 61.0511 49.0233 68.7324 49.2673C69.3408 49.287 69.9512 49.2966 70.5615 49.2966V49.2976L76.5195 49.3289L77.9707 49.3367L78.2129 49.3376L78.2188 49.0955L78.2383 48.2136L78.3652 42.6394L78.3711 42.3875H77.8643V42.3914H75.7266L72.4434 42.3953H71.8721C62.9482 42.403 54.1626 40.259 46.249 36.1531H46.248C45.9532 36.0015 45.6617 35.8455 45.3691 35.6873L42.4414 34.1003L40.9531 33.2947L40.6895 33.1521L40.6006 33.4382Z" stroke="url(#paint2_linear_172_161)" stroke-opacity="0.78" stroke-width="0.493446" style="mix-blend-mode:overlay"/>
<path d="M77.1271 66.0371C76.0008 69.3365 74.1275 72.4341 71.5052 75.0614C69.2076 77.3655 66.5482 79.0916 63.707 80.2437C60.8677 81.3957 57.8465 81.9717 54.8273 81.9717C49.7725 81.9717 44.7177 80.3573 40.5076 77.1265L27.9928 92.1383C27.3319 92.9298 26.1332 92.9847 25.4038 92.2539L20.9924 87.8318C20.263 87.103 20.3178 85.902 21.1078 85.2397L36.0884 72.7025C32.1736 67.5791 30.6366 61.2037 31.4794 55.0986C33.3234 56.6504 35.5682 58.1316 38.1357 59.4893C38.3977 63.398 40.0149 67.2303 42.991 70.2123C49.5183 76.7523 60.1383 76.7523 66.6655 70.2123C67.7195 69.1563 68.6014 67.9944 69.3132 66.7601C72.1153 66.7189 74.7434 66.474 77.1271 66.0371Z" fill="url(#paint3_linear_172_161)"/>
<path d="M31.668 55.5703C33.4298 57.0066 35.5269 58.3784 37.8994 59.6416C38.1933 63.5601 39.8308 67.3953 42.8164 70.3867C49.44 77.0231 60.2162 77.023 66.8398 70.3867C67.8748 69.3497 68.7451 68.2108 69.4551 67.0029C72.0547 66.9585 74.5055 66.7378 76.752 66.3516C75.6252 69.4681 73.8208 72.3919 71.3311 74.8867L71.3301 74.8877C69.0565 77.1675 66.4252 78.8749 63.6143 80.0146C60.8049 81.1545 57.815 81.7246 54.8271 81.7246C49.8249 81.7246 44.8236 80.1271 40.6582 76.9307L40.4697 76.7861L40.3184 76.9688L27.8037 91.9805C27.2356 92.6608 26.2048 92.707 25.5781 92.0791H25.5771L21.167 87.6572L21.0576 87.5352C20.5489 86.9037 20.6296 85.9627 21.2666 85.4287L21.2656 85.4277L36.2471 72.8916L36.4277 72.7402L36.2842 72.5527C32.5043 67.6058 30.9649 61.4784 31.668 55.5703Z" stroke="url(#paint4_linear_172_161)" stroke-opacity="0.78" stroke-width="0.493446" style="mix-blend-mode:overlay"/>
</g>
<defs>
<filter id="filter0_d_172_161" x="20.4785" y="18.2576" width="69.8359" height="76.9785" filterUnits="userSpaceOnUse" color-interpolation-filters="sRGB">
<feFlood flood-opacity="0" result="BackgroundImageFix"/>
<feColorMatrix in="SourceAlpha" type="matrix" values="0 0 0 0 0 0 0 0 0 0 0 0 0 0 0 0 0 0 127 0" result="hardAlpha"/>
<feOffset dy="2.46723"/>
<feComposite in2="hardAlpha" operator="out"/>
<feColorMatrix type="matrix" values="0 0 0 0 0 0 0 0 0 0 0 0 0 0 0 0 0 0 0.1 0"/>
<feBlend mode="normal" in2="BackgroundImageFix" result="effect1_dropShadow_172_161"/>
<feBlend mode="normal" in="SourceGraphic" in2="effect1_dropShadow_172_161" result="shape"/>
</filter>
<linearGradient id="paint0_linear_172_161" x1="55.5126" y1="0" x2="55.5126" y2="111.025" gradientUnits="userSpaceOnUse">
<stop stop-color="#A5FF12"/>
<stop offset="1" stop-color="#CAFF74"/>
</linearGradient>
<linearGradient id="paint1_linear_172_161" x1="58.0673" y1="18.2576" x2="58.0673" y2="61.1921" gradientUnits="userSpaceOnUse">
<stop stop-color="#060900"/>
<stop offset="1" stop-color="#101A00"/>
</linearGradient>
<linearGradient id="paint2_linear_172_161" x1="25.8203" y1="39.7248" x2="90.3143" y2="39.7248" gradientUnits="userSpaceOnUse">
<stop/>
<stop offset="1" stop-color="white"/>
</linearGradient>
<linearGradient id="paint3_linear_172_161" x1="48.8028" y1="55.0986" x2="48.8028" y2="92.7687" gradientUnits="userSpaceOnUse">
<stop stop-color="#060900"/>
<stop offset="1" stop-color="#101A00"/>
</linearGradient>
<linearGradient id="paint4_linear_172_161" x1="20.4785" y1="73.9337" x2="77.1271" y2="73.9337" gradientUnits="userSpaceOnUse">
<stop/>
<stop offset="1" stop-color="white"/>
</linearGradient>
</defs>
</svg>
