<svg width="177" height="40" viewBox="0 0 177 40" fill="none" xmlns="http://www.w3.org/2000/svg">
<path d="M173.988 35.8897C171.711 35.8897 170.033 35.3353 168.954 34.2265C167.905 33.1177 167.381 31.5145 167.381 29.4169V2.62671H174.033V30.7204H177V35.8897H173.988Z" fill="white"/>
<path d="M162.979 35.8897C160.701 35.8897 159.023 35.3353 157.944 34.2265C156.896 33.1177 156.371 31.5145 156.371 29.4169V2.62671H163.024V30.7204H165.99V35.8897H162.979Z" fill="white"/>
<path d="M150.469 35.8896C149.27 35.8896 148.266 35.515 147.457 34.7658C146.678 34.0167 146.184 33.0128 145.974 31.7542H145.704C145.345 33.2825 144.55 34.4512 143.322 35.2603C142.093 36.0394 140.58 36.429 138.782 36.429C136.415 36.429 134.602 35.7997 133.343 34.5411C132.084 33.2825 131.455 31.6193 131.455 29.5516C131.455 27.0644 132.354 25.2215 134.152 24.0228C135.98 22.7942 138.452 22.1798 141.569 22.1798H145.3V20.6965C145.3 19.5578 145 18.6588 144.401 17.9995C143.801 17.3103 142.797 16.9657 141.389 16.9657C140.07 16.9657 139.022 17.2503 138.243 17.8197C137.463 18.3891 136.819 19.0334 136.31 19.7526L132.354 16.2465C133.313 14.838 134.512 13.7442 135.95 12.9651C137.418 12.156 139.396 11.7515 141.883 11.7515C145.24 11.7515 147.757 12.4856 149.435 13.954C151.113 15.4224 151.952 17.565 151.952 20.3818V30.7203H154.155V35.8896H150.469ZM141.254 31.7991C142.363 31.7991 143.307 31.5594 144.086 31.0799C144.895 30.6005 145.3 29.8213 145.3 28.7425V25.9556H142.063C139.456 25.9556 138.153 26.8397 138.153 28.6077V29.2819C138.153 30.151 138.422 30.7952 138.962 31.2148C139.501 31.6043 140.265 31.7991 141.254 31.7991Z" fill="white"/>
<path d="M119.032 36.4289C116.904 36.4289 114.987 36.0993 113.279 35.44C111.57 34.7508 110.117 33.7469 108.918 32.4284C107.72 31.0799 106.791 29.4168 106.131 27.439C105.472 25.4312 105.143 23.0938 105.143 20.4268C105.143 17.7897 105.472 15.4523 106.131 13.4146C106.791 11.3469 107.72 9.62381 108.918 8.24534C110.117 6.83691 111.57 5.77309 113.279 5.0539C114.987 4.3347 116.904 3.9751 119.032 3.9751C121.939 3.9751 124.336 4.57443 126.224 5.7731C128.112 6.94179 129.625 8.79972 130.764 11.3469L124.876 14.4035C124.456 13.0849 123.797 12.0361 122.898 11.257C122.029 10.4479 120.74 10.0433 119.032 10.0433C117.024 10.0433 115.406 10.7026 114.178 12.0211C112.979 13.3097 112.38 15.1976 112.38 17.6848V22.7192C112.38 25.2064 112.979 27.1093 114.178 28.4279C115.406 29.7164 117.024 30.3607 119.032 30.3607C120.71 30.3607 122.044 29.9112 123.033 29.0122C124.052 28.0832 124.801 26.9745 125.28 25.6859L130.854 28.9223C129.685 31.3196 128.142 33.1776 126.224 34.4961C124.336 35.7847 121.939 36.4289 119.032 36.4289Z" fill="white"/>
<path d="M81.4668 35.8896V12.2909H88.1194V16.2914H88.3891C88.8086 15.0628 89.5428 13.999 90.5916 13.1C91.6405 12.201 93.0938 11.7515 94.9518 11.7515C97.3791 11.7515 99.207 12.5606 100.436 14.1788C101.694 15.797 102.324 18.1044 102.324 21.101V35.8896H95.671V21.6404C95.671 20.1121 95.4312 18.9884 94.9518 18.2692C94.4723 17.52 93.6183 17.1455 92.3896 17.1455C91.8502 17.1455 91.3258 17.2204 90.8164 17.3702C90.3069 17.4901 89.8425 17.6998 89.4229 17.9995C89.0334 18.2992 88.7187 18.6738 88.479 19.1233C88.2393 19.5428 88.1194 20.0372 88.1194 20.6066V35.8896H81.4668Z" fill="white"/>
<path d="M64.5711 36.4289C62.5034 36.4289 60.6155 36.0843 58.9074 35.3951C57.1993 34.7059 55.7459 33.687 54.5473 32.3385C53.3486 30.96 52.4196 29.2669 51.7604 27.2592C51.1011 25.2214 50.7715 22.8691 50.7715 20.202C50.7715 17.535 51.1011 15.1976 51.7604 13.1898C52.4196 11.1521 53.3486 9.45899 54.5473 8.11049C55.7459 6.73203 57.1993 5.69818 58.9074 5.00895C60.6155 4.31971 62.5034 3.9751 64.5711 3.9751C66.6388 3.9751 68.5267 4.31971 70.2348 5.00895C71.9429 5.69818 73.3963 6.73203 74.5949 8.11049C75.7936 9.45899 76.7226 11.1521 77.3818 13.1898C78.0411 15.1976 78.3707 17.535 78.3707 20.202C78.3707 22.8691 78.0411 25.2214 77.3818 27.2592C76.7226 29.2669 75.7936 30.96 74.5949 32.3385C73.3963 33.687 71.9429 34.7059 70.2348 35.3951C68.5267 36.0843 66.6388 36.4289 64.5711 36.4289ZM64.5711 30.3607C66.6388 30.3607 68.242 29.6865 69.3808 28.338C70.5495 26.9895 71.1338 25.0566 71.1338 22.5394V17.8646C71.1338 15.3474 70.5495 13.4146 69.3808 12.0661C68.242 10.7176 66.6388 10.0433 64.5711 10.0433C62.5034 10.0433 60.8852 10.7176 59.7165 12.0661C58.5778 13.4146 58.0084 15.3474 58.0084 17.8646V22.5394C58.0084 25.0566 58.5778 26.9895 59.7165 28.338C60.8852 29.6865 62.5034 30.3607 64.5711 30.3607Z" fill="white"/>
<path d="M0 4.4274C0 1.98221 1.98222 0 4.42741 0H35.4193C37.8645 0 39.8467 1.98222 39.8467 4.42741V35.4193C39.8467 37.8645 37.8645 39.8467 35.4193 39.8467H4.4274C1.98221 39.8467 0 37.8645 0 35.4193V4.4274Z" fill="url(#paint0_linear_170_154)"/>
<path d="M35.4193 39.6697V39.8467H4.42733V39.6697H35.4193ZM39.6697 35.4193V4.42733C39.6696 2.08002 37.7666 0.177053 35.4193 0.176995H4.42733C2.08001 0.177035 0.177032 2.08001 0.176995 4.42733V35.4193C0.177055 37.7666 2.08002 39.6696 4.42733 39.6697V39.8467L4.31307 39.8453C1.95873 39.7856 0.0610994 37.8879 0.00140194 35.5336L0 35.4193V4.42733C3.70811e-05 1.9822 1.9822 3.9647e-05 4.42733 0H35.4193L35.5336 0.00140194C37.9259 0.0620598 39.8466 2.02041 39.8467 4.42733V35.4193L39.8453 35.5336C39.7856 37.8879 37.8879 39.7856 35.5336 39.8453L35.4193 39.8467V39.6697C37.7666 39.6696 39.6696 37.7666 39.6697 35.4193Z" fill="url(#paint1_linear_170_154)" fill-opacity="0.78" style="mix-blend-mode:overlay"/>
<g filter="url(#filter0_d_170_154)">
<path d="M29.9608 14.3638C29.6843 14.1542 29.3875 13.9489 29.0717 13.7485C28.7748 13.5608 28.4618 13.3779 28.1334 13.2C28.1172 13.1916 28.1018 13.1832 28.0856 13.1747L28.0912 12.9483L28.1298 11.3352L28.1677 9.7524C28.1677 7.86017 25.9297 6.80401 24.4103 7.98041L24.1043 8.21738C23.0313 9.04782 21.4964 8.98243 20.5013 8.06479L19.4977 7.13872C18.3341 6.06568 16.4231 6.52977 15.9101 8.00924L15.0967 10.6166C14.7086 10.6588 14.3338 10.7129 13.9752 10.779C11.4073 11.2544 9.63037 12.3457 9.31666 13.8983C9.21631 14.3947 9.27175 14.9059 9.46545 15.4192C9.81003 16.3327 10.5911 17.2503 11.7056 18.099C12.3267 18.5723 13.0524 19.0244 13.8629 19.4414C15.5269 20.2971 17.553 21.0073 19.7847 21.4602C21.8501 21.88 23.839 22.0269 25.6027 21.9355C26.5052 21.8891 27.348 21.7801 28.113 21.6135C30.1974 21.1592 31.6978 20.276 32.2157 19.0553C32.2824 18.9013 32.3322 18.741 32.3652 18.5765C32.6452 17.1919 31.7118 15.6928 29.9615 14.3638H29.9608ZM14.6567 12.0272L15.1907 12.3162L16.2413 12.8857C16.3466 12.9427 16.4519 12.9989 16.5586 13.0538C19.4114 14.534 22.5786 15.3067 25.7957 15.3039H26.0006L27.1789 15.3025H28.0344V15.3011H28.0372L27.9916 17.3016L27.9846 17.6181L27.4638 17.6152L25.3254 17.604C25.1072 17.604 24.8889 17.6005 24.6714 17.5934C21.9266 17.5063 19.2317 16.8551 16.7515 15.6822C16.4203 15.5268 16.0933 15.3616 15.7704 15.1865L14.5086 14.5023L14.3016 14.3905L13.9745 14.2133L14.4461 12.7008L14.6567 12.0272Z" fill="url(#paint2_linear_170_154)"/>
<path d="M15.9098 8.00902C16.4229 6.52963 18.3338 6.06576 19.4974 7.13877L20.5012 8.06475C21.4652 8.95364 22.9357 9.0428 24.0022 8.29257L24.1042 8.21721L24.4102 7.98029C25.9295 6.80391 28.1677 7.86012 28.1677 9.75234L28.0853 13.1745C28.1015 13.1829 28.1172 13.1916 28.1334 13.2001C28.4617 13.3779 28.7748 13.5609 29.0716 13.7486C29.3084 13.8988 29.5346 14.0519 29.7494 14.2074L29.9608 14.3637H29.9615C31.7117 15.6927 32.6451 17.192 32.3651 18.5765C32.3321 18.741 32.2821 18.9013 32.2155 19.0553C31.6975 20.2759 30.197 21.1592 28.1127 21.6135L27.8225 21.6731C27.1363 21.8062 26.3923 21.895 25.6025 21.9356L25.2692 21.9499C23.5899 22.0076 21.7207 21.8535 19.7844 21.46C17.5528 21.0071 15.5266 20.2969 13.8626 19.4412C13.0521 19.0242 12.3264 18.572 11.7054 18.0988C10.6606 17.3031 9.90864 16.447 9.53484 15.5904L9.46544 15.419C9.28388 14.9378 9.22377 14.4585 9.29966 13.9915L9.31649 13.8982C9.63019 12.3456 11.4073 11.2543 13.9751 10.7789C14.3337 10.7128 14.7086 10.6588 15.0967 10.6166L15.9098 8.00902ZM19.3775 7.2688C18.3052 6.27996 16.5474 6.71154 16.0774 8.06721L15.2656 10.6692L15.2309 10.78L15.1156 10.7926C14.7315 10.8343 14.361 10.8875 14.007 10.9528C12.7379 11.1877 11.6762 11.5733 10.8975 12.0827C10.1682 12.5599 9.69653 13.1392 9.52117 13.8001L9.48998 13.9333C9.39714 14.3925 9.4472 14.8698 9.63087 15.3566C9.95918 16.2269 10.7122 17.1198 11.8126 17.9579C12.4243 18.424 13.1412 18.8709 13.9439 19.2838C15.5921 20.1314 17.6024 20.8365 19.8198 21.2865L20.2036 21.3615C22.1177 21.7208 23.9551 21.8435 25.5934 21.7586L25.9257 21.7386C26.6945 21.6849 27.415 21.5842 28.0752 21.4403C30.1448 20.9893 31.5696 20.1242 32.0525 18.9862L32.0532 18.9848C32.1148 18.8425 32.1607 18.694 32.1913 18.5415L32.1916 18.5411C32.4483 17.2715 31.604 15.8443 29.8896 14.5319L29.8539 14.5049C29.5817 14.2986 29.2889 14.0958 28.977 13.8979C28.6837 13.7124 28.3741 13.5318 28.0489 13.3557C28.0409 13.3515 28.0328 13.3472 28.0258 13.3434C28.0178 13.3392 28.0105 13.3353 28.0033 13.3315L27.9055 13.2803L27.9907 9.75234C27.9907 8.01543 25.9279 7.02917 24.5185 8.12048L24.2125 8.35741C23.0713 9.24055 21.4398 9.17114 20.381 8.19478L19.3775 7.2688ZM15.2747 12.1602L15.2751 12.1605L16.3251 12.7297L16.6395 12.8962L16.6399 12.8965C19.4675 14.3636 22.6067 15.1295 25.7953 15.1267L25.7956 15.3037L25.4942 15.3019C22.3809 15.2578 19.3219 14.4875 16.5582 13.0536L16.241 12.8857L14.6565 12.027L13.9744 14.2133L14.3014 14.3903L14.5086 14.5021L15.7703 15.1863C16.0932 15.3614 16.4201 15.5268 16.7513 15.6822C19.2315 16.8551 21.9265 17.5062 24.6713 17.5934C24.8888 17.6004 25.107 17.6039 25.3253 17.6039L27.9844 17.6179L28.037 15.3009H28.0342V15.3023H27.1786L26.0003 15.3037V15.1267L27.1786 15.1253H27.8572V15.1239H28.2182L28.2112 15.4253V15.4796H28.2101L28.1575 17.796L25.3242 17.7809C25.1045 17.7809 24.8847 17.7775 24.6657 17.7704C21.8966 17.6824 19.1777 17.0256 16.6756 15.8424C16.3415 15.6856 16.0115 15.5188 15.6859 15.3422L14.4241 14.6577L14.2173 14.5463L13.762 14.2995L13.8052 14.1604L14.2769 12.6481L14.5517 11.769L15.2747 12.1602ZM26.0003 15.1267V15.3037H25.7956L25.7953 15.1267H26.0003Z" fill="url(#paint3_linear_170_154)" fill-opacity="0.78" style="mix-blend-mode:overlay"/>
<path d="M27.6806 23.7005C27.2764 24.8846 26.6041 25.9963 25.663 26.9393C24.8383 27.7662 23.8839 28.3857 22.8642 28.7991C21.8452 29.2126 20.7609 29.4193 19.6773 29.4193C17.8631 29.4193 16.049 28.8399 14.538 27.6804L10.0465 33.0681C9.80927 33.3522 9.37907 33.3719 9.1173 33.1096L7.53403 31.5225C7.27226 31.2609 7.29191 30.8299 7.57544 30.5922L12.9519 26.0926C11.5469 24.2539 10.9953 21.9657 11.2978 19.7747C11.9596 20.3316 12.7653 20.8632 13.6867 21.3505C13.7808 22.7533 14.3612 24.1287 15.4293 25.1989C17.7719 27.5461 21.5834 27.5461 23.926 25.1989C24.3043 24.8199 24.6208 24.4029 24.8762 23.9599C25.8819 23.9452 26.8251 23.8573 27.6806 23.7005Z" fill="url(#paint4_linear_170_154)"/>
<path d="M11.2979 19.7747C11.9597 20.3316 12.7654 20.8631 13.6868 21.3504C13.7809 22.7532 14.3613 24.1285 15.4294 25.1987C17.772 27.5459 21.5833 27.5459 23.9259 25.1987C24.2569 24.8671 24.5407 24.5066 24.7776 24.1249L24.8764 23.9598C25.882 23.945 26.8252 23.8572 27.6806 23.7004C27.2764 24.8846 26.604 25.9963 25.6629 26.9392L25.5069 27.0917C24.7189 27.8427 23.8203 28.4116 22.8643 28.7993L22.6726 28.8743C21.7098 29.2377 20.6932 29.4193 19.6773 29.4193V29.2423C20.7384 29.2423 21.8001 29.0396 22.7977 28.6349L22.9841 28.5567C23.9122 28.1537 24.7808 27.5732 25.5378 26.8141L25.7074 26.6392C26.4677 25.832 27.034 24.9078 27.4094 23.9265C26.6544 24.048 25.8387 24.1179 24.978 24.1347C24.7242 24.5586 24.4159 24.9586 24.0514 25.3239C21.6396 27.7404 17.7158 27.7404 15.304 25.3239C14.2292 24.247 13.6342 22.8698 13.5175 21.4601C12.7355 21.0409 12.0354 20.5895 11.436 20.1157C11.2324 22.1639 11.785 24.2737 13.0927 25.9852L13.1954 26.1198L7.68932 30.728C7.48524 30.8991 7.47137 31.2092 7.65918 31.3971L7.65953 31.3974L9.24267 32.9844C9.43072 33.1728 9.74009 33.1589 9.9107 32.9546L14.4022 27.567L14.5108 27.4362L14.6457 27.54C16.1247 28.6749 17.9008 29.2423 19.6773 29.2423V29.4193C17.8632 29.4193 16.0491 28.84 14.5381 27.6805L10.0467 33.0682L10.0001 33.1183C9.77265 33.3379 9.41461 33.3541 9.16837 33.1554L9.11755 33.1095L7.53406 31.5225C7.27228 31.2609 7.29189 30.8297 7.57541 30.592L12.9519 26.0925C11.5469 24.2537 10.9954 21.9657 11.2979 19.7747Z" fill="url(#paint5_linear_170_154)" fill-opacity="0.78" style="mix-blend-mode:overlay"/>
</g>
<defs>
<filter id="filter0_d_170_154" x="7.34961" y="6.55249" width="25.0645" height="27.6274" filterUnits="userSpaceOnUse" color-interpolation-filters="sRGB">
<feFlood flood-opacity="0" result="BackgroundImageFix"/>
<feColorMatrix in="SourceAlpha" type="matrix" values="0 0 0 0 0 0 0 0 0 0 0 0 0 0 0 0 0 0 127 0" result="hardAlpha"/>
<feOffset dy="0.885482"/>
<feComposite in2="hardAlpha" operator="out"/>
<feColorMatrix type="matrix" values="0 0 0 0 0 0 0 0 0 0 0 0 0 0 0 0 0 0 0.1 0"/>
<feBlend mode="normal" in2="BackgroundImageFix" result="effect1_dropShadow_170_154"/>
<feBlend mode="normal" in="SourceGraphic" in2="effect1_dropShadow_170_154" result="shape"/>
</filter>
<linearGradient id="paint0_linear_170_154" x1="19.9233" y1="0" x2="19.9233" y2="39.8467" gradientUnits="userSpaceOnUse">
<stop stop-color="#A5FF12"/>
<stop offset="1" stop-color="#CAFF74"/>
</linearGradient>
<linearGradient id="paint1_linear_170_154" x1="0" y1="19.9233" x2="39.8467" y2="19.9233" gradientUnits="userSpaceOnUse">
<stop/>
<stop offset="1" stop-color="white"/>
</linearGradient>
<linearGradient id="paint2_linear_170_154" x1="20.8409" y1="6.55249" x2="20.8409" y2="21.9616" gradientUnits="userSpaceOnUse">
<stop stop-color="#060900"/>
<stop offset="1" stop-color="#101A00"/>
</linearGradient>
<linearGradient id="paint3_linear_170_154" x1="9.26742" y1="14.2569" x2="32.4141" y2="14.2569" gradientUnits="userSpaceOnUse">
<stop/>
<stop offset="1" stop-color="white"/>
</linearGradient>
<linearGradient id="paint4_linear_170_154" x1="17.5151" y1="19.7747" x2="17.5151" y2="33.2944" gradientUnits="userSpaceOnUse">
<stop stop-color="#060900"/>
<stop offset="1" stop-color="#101A00"/>
</linearGradient>
<linearGradient id="paint5_linear_170_154" x1="7.3497" y1="26.5345" x2="27.6807" y2="26.5345" gradientUnits="userSpaceOnUse">
<stop/>
<stop offset="1" stop-color="white"/>
</linearGradient>
</defs>
</svg>
