<svg width="494" height="112" viewBox="0 0 494 112" fill="none" xmlns="http://www.w3.org/2000/svg">
<path d="M484.786 99.9998C478.44 99.9998 473.764 98.4551 470.759 95.3658C467.836 92.2764 466.375 87.8093 466.375 81.9646V7.31885H484.911V85.5967H493.177V99.9998H484.786Z" fill="white"/>
<path d="M454.11 99.9998C447.764 99.9998 443.089 98.4551 440.083 95.3658C437.16 92.2764 435.699 87.8093 435.699 81.9646V7.31885H454.235V85.5967H462.502V99.9998H454.11Z" fill="white"/>
<path d="M419.25 100C415.91 100 413.113 98.9563 410.859 96.8689C408.688 94.7815 407.31 91.9843 406.725 88.4775H405.974C404.972 92.7358 402.759 95.9921 399.336 98.2466C395.913 100.417 391.696 101.503 386.686 101.503C380.09 101.503 375.039 99.7495 371.532 96.2426C368.025 92.7358 366.271 88.1017 366.271 82.3405C366.271 75.4103 368.776 70.2753 373.786 66.9354C378.879 63.5121 385.768 61.8004 394.452 61.8004H404.847V57.6673C404.847 54.4945 404.012 51.9896 402.342 50.1526C400.672 48.2322 397.875 47.272 393.951 47.272C390.277 47.272 387.354 48.0652 385.183 49.6517C383.013 51.2381 381.217 53.0333 379.798 55.0372L368.776 45.2681C371.448 41.3438 374.788 38.2962 378.796 36.1252C382.887 33.8709 388.398 32.7437 395.328 32.7437C404.68 32.7437 411.693 34.7893 416.369 38.8806C421.045 42.972 423.383 48.9419 423.383 56.7906V85.5969H429.52V100H419.25ZM393.575 88.6027C396.664 88.6027 399.294 87.9347 401.465 86.5988C403.72 85.2629 404.847 83.092 404.847 80.0861V72.3209H395.829C388.565 72.3209 384.933 74.7841 384.933 79.7104V81.589C384.933 84.0104 385.684 85.8056 387.187 86.9745C388.69 88.06 390.819 88.6027 393.575 88.6027Z" fill="white"/>
<path d="M331.658 101.503C325.729 101.503 320.386 100.584 315.626 98.7474C310.867 96.8269 306.817 94.0298 303.478 90.356C300.138 86.5986 297.549 81.9646 295.712 76.4538C293.875 70.8596 292.957 64.3469 292.957 56.9157C292.957 49.568 293.875 43.0553 295.712 37.3775C297.549 31.6163 300.138 26.8152 303.478 22.9744C306.817 19.0501 310.867 16.086 315.626 14.082C320.386 12.0781 325.729 11.0762 331.658 11.0762C339.757 11.0762 346.436 12.7461 351.697 16.086C356.957 19.3423 361.174 24.5191 364.346 31.6163L347.939 40.1329C346.77 36.4591 344.934 33.5367 342.429 31.3658C340.007 29.1114 336.417 27.9842 331.658 27.9842C326.063 27.9842 321.555 29.8211 318.131 33.4949C314.791 37.0853 313.121 42.3456 313.121 49.2758V63.3032C313.121 70.2333 314.791 75.5354 318.131 79.2092C321.555 82.7996 326.063 84.5947 331.658 84.5947C336.333 84.5947 340.049 83.3423 342.804 80.8374C345.643 78.249 347.731 75.1596 349.067 71.5693L364.597 80.5869C361.341 87.2666 357.04 92.4434 351.697 96.1172C346.436 99.7076 339.757 101.503 331.658 101.503Z" fill="white"/>
<path d="M226.99 100V34.2466H245.526V45.3934H246.278C247.447 41.97 249.493 39.0059 252.415 36.501C255.337 33.9961 259.387 32.7437 264.564 32.7437C271.327 32.7437 276.42 34.9981 279.843 39.5069C283.35 44.0157 285.104 50.4449 285.104 58.7945V100H266.568V60.2975C266.568 56.0391 265.9 52.908 264.564 50.9041C263.228 48.8167 260.848 47.773 257.425 47.773C255.922 47.773 254.461 47.9817 253.041 48.3992C251.622 48.7332 250.327 49.3177 249.159 50.1526C248.073 50.9876 247.196 52.0313 246.528 53.2838C245.86 54.4527 245.526 55.8304 245.526 57.4168V100H226.99Z" fill="white"/>
<path d="M179.915 101.503C174.154 101.503 168.893 100.543 164.134 98.6221C159.375 96.7017 155.325 93.8628 151.985 90.1055C148.646 86.2647 146.057 81.5471 144.22 75.9529C142.383 70.2751 141.465 63.7206 141.465 56.2895C141.465 48.8583 142.383 42.3456 144.22 36.7513C146.057 31.0736 148.646 26.356 151.985 22.5987C155.325 18.7578 159.375 15.8772 164.134 13.9568C168.893 12.0364 174.154 11.0762 179.915 11.0762C185.676 11.0762 190.936 12.0364 195.696 13.9568C200.455 15.8772 204.505 18.7578 207.844 22.5987C211.184 26.356 213.773 31.0736 215.61 36.7513C217.447 42.3456 218.365 48.8583 218.365 56.2895C218.365 63.7206 217.447 70.2751 215.61 75.9529C213.773 81.5471 211.184 86.2647 207.844 90.1055C204.505 93.8628 200.455 96.7017 195.696 98.6221C190.936 100.543 185.676 101.503 179.915 101.503ZM179.915 84.5947C185.676 84.5947 190.143 82.7161 193.316 78.9587C196.572 75.2014 198.201 69.8159 198.201 62.8022V49.7767C198.201 42.763 196.572 37.3775 193.316 33.6202C190.143 29.8629 185.676 27.9842 179.915 27.9842C174.154 27.9842 169.645 29.8629 166.389 33.6202C163.216 37.3775 161.629 42.763 161.629 49.7767V62.8022C161.629 69.8159 163.216 75.2014 166.389 78.9587C169.645 82.7161 174.154 84.5947 179.915 84.5947Z" fill="white"/>
<path d="M0 12.3361C0 5.52307 5.52308 0 12.3361 0H98.6892C105.502 0 111.025 5.52308 111.025 12.3361V98.6892C111.025 105.502 105.502 111.025 98.6891 111.025H12.3361C5.52307 111.025 0 105.502 0 98.6891V12.3361Z" fill="url(#paint0_linear_170_153)"/>
<path d="M98.6894 110.532V111.025H12.3359V110.532H98.6894ZM110.532 98.6894V12.3359C110.532 5.79558 105.23 0.493325 98.6894 0.493164H12.3359C5.79555 0.493274 0.493267 5.79555 0.493164 12.3359V98.6894C0.493332 105.23 5.79558 110.532 12.3359 110.532V111.025L12.0176 111.021C5.45763 110.855 0.170242 105.568 0.00390625 99.0077L0 98.6894V12.3359C0.00010332 5.52303 5.52303 0.000110469 12.3359 0H98.6894L99.0077 0.00390625C105.673 0.172918 111.025 5.6295 111.025 12.3359V98.6894L111.021 99.0077C110.855 105.568 105.568 110.855 99.0077 111.021L98.6894 111.025V110.532C105.23 110.532 110.532 105.23 110.532 98.6894Z" fill="url(#paint1_linear_170_153)" fill-opacity="0.78" style="mix-blend-mode:overlay"/>
<g filter="url(#filter0_d_170_153)">
<path d="M83.4782 40.022C82.7078 39.4382 81.8806 38.8661 81.0007 38.3077C80.1735 37.7846 79.3014 37.2752 78.3863 36.7795C78.3413 36.756 78.2983 36.7325 78.2533 36.7089L78.2689 36.0781L78.3765 31.5835L78.4821 27.1733C78.4821 21.9009 72.2462 18.9581 68.0127 22.236L67.1601 22.8962C64.1702 25.2101 59.8937 25.0279 57.1209 22.4711L54.3246 19.8907C51.0825 16.9009 45.7578 18.194 44.3284 22.3163L42.0621 29.5812C40.9807 29.6987 39.9365 29.8496 38.9373 30.0338C31.7823 31.3582 26.8312 34.399 25.9571 38.725C25.6775 40.1082 25.8319 41.5326 26.3716 42.9629C27.3318 45.5079 29.5082 48.0648 32.6134 50.4296C34.344 51.7482 36.3659 53.008 38.6244 54.1698C43.2607 56.5542 48.9061 58.533 55.1244 59.7948C60.8792 60.9645 66.4209 61.374 71.335 61.1192C73.8496 60.9899 76.1981 60.6863 78.3296 60.2219C84.1372 58.9562 88.3179 56.4954 89.761 53.0942C89.9468 52.6651 90.0856 52.2184 90.1776 51.7599C90.9578 47.9021 88.357 43.725 83.4802 40.022H83.4782ZM40.836 33.5114L42.3241 34.3167L45.2514 35.9037C45.5447 36.0624 45.838 36.2191 46.1352 36.372C54.0841 40.4962 62.909 42.6494 71.8727 42.6416H72.4437L75.7269 42.6376H78.1106V42.6337H78.1184L77.9913 48.2078L77.9717 49.0894L76.5208 49.0816L70.5626 49.0503C69.9544 49.0503 69.3463 49.0405 68.7401 49.0209C61.0924 48.7779 53.5835 46.9637 46.673 43.6956C45.75 43.2626 44.8388 42.8022 43.9393 42.3144L40.4234 40.408L39.8466 40.0965L38.9353 39.6028L40.2494 35.3884L40.836 33.5114Z" fill="url(#paint2_linear_170_153)"/>
<path d="M44.3277 22.3157C45.7572 18.1936 51.0817 16.9012 54.3238 19.8909L57.1206 22.471C59.8068 24.9477 63.9039 25.1961 66.8755 23.1057L67.1597 22.8958L68.0123 22.2356C72.2458 18.9579 78.482 21.9008 78.482 27.1731L78.2525 36.7083C78.2975 36.7318 78.3413 36.756 78.3863 36.7796C79.3012 37.2752 80.1735 37.7848 81.0005 38.3079C81.6603 38.7266 82.2904 39.1529 82.8892 39.5862L83.4781 40.0217H83.48C88.3568 43.7247 90.9575 47.9023 90.1773 51.76C90.0854 52.2184 89.946 52.665 89.7603 53.094C88.3171 56.4952 84.1362 58.9563 78.3287 60.2219L77.5201 60.388C75.6082 60.759 73.535 61.0062 71.3345 61.1194L70.4058 61.1594C65.7269 61.32 60.5187 60.8908 55.1236 59.7942C48.9055 58.5324 43.2598 56.5536 38.6236 54.1692C36.3652 53.0074 34.3433 51.7475 32.6128 50.429C29.7017 48.2119 27.6065 45.8264 26.565 43.4397L26.3716 42.9622C25.8657 41.6214 25.6983 40.286 25.9097 38.9846L25.9566 38.7249C26.8307 34.3988 31.7821 31.3579 38.9371 30.0335C39.9362 29.8493 40.9808 29.6989 42.0621 29.5813L44.3277 22.3157ZM53.9898 20.2532C51.0021 17.498 46.1043 18.7005 44.7945 22.4778L42.5328 29.7278L42.4361 30.0364L42.1148 30.0715C41.0446 30.1879 40.0122 30.3361 39.0259 30.5178C35.4897 31.1725 32.5315 32.2468 30.3619 33.6663C28.3297 34.9958 27.0155 36.6099 26.5269 38.4514L26.44 38.8225C26.1813 40.1021 26.3208 41.4321 26.8326 42.7883C27.7473 45.2132 29.8454 47.7012 32.9117 50.0364C34.616 51.335 36.6135 52.5801 38.8501 53.7307C43.4423 56.0924 49.0437 58.0571 55.2222 59.3108L56.2915 59.5198C61.6248 60.521 66.7443 60.8628 71.3091 60.6262L72.2349 60.5706C74.3772 60.4209 76.3848 60.1402 78.2242 59.7395C83.9909 58.4827 87.9606 56.0724 89.3062 52.9016L89.3082 52.8977C89.4798 52.5011 89.6077 52.0873 89.6929 51.6624L89.6939 51.6614C90.409 48.1238 88.0565 44.1471 83.2798 40.4905L83.1802 40.4153C82.4217 39.8405 81.606 39.2754 80.7369 38.7239C79.9198 38.2072 79.057 37.7039 78.1509 37.2131C78.1285 37.2014 78.1062 37.1895 78.0865 37.179C78.0643 37.1671 78.0441 37.1563 78.024 37.1458L77.7515 37.0032L77.9888 27.1731C77.9888 22.3335 72.2413 19.5855 68.314 22.6262L67.4615 23.2864C64.2817 25.7471 59.7359 25.5537 56.7857 22.8333L53.9898 20.2532ZM42.5581 33.8821L42.5591 33.8831L45.4849 35.469L46.3609 35.9329L46.3619 35.9338C54.2404 40.0216 62.9873 42.1555 71.8716 42.1477L71.8726 42.6409L71.0328 42.636C62.3581 42.513 53.8349 40.3668 46.1343 36.3713L45.2505 35.9036L40.8355 33.511L38.9351 39.6028L39.8462 40.096L40.4234 40.4075L43.939 42.3137C44.8385 42.8016 45.7495 43.2626 46.6724 43.6956C53.5829 46.9636 61.0921 48.7778 68.7398 49.0208C69.3459 49.0404 69.954 49.0501 70.5621 49.0501L77.9712 49.0891L78.1177 42.6331H78.1099V42.637H75.7261L72.4429 42.6409V42.1477L75.7261 42.1438H77.6167V42.1399H78.6226L78.6031 42.9797V43.1311H78.6001L78.4537 49.5852L70.5591 49.5432C69.9468 49.5432 69.3345 49.5337 68.7242 49.5139C61.0088 49.2688 53.4331 47.4388 46.4615 44.1419C45.5304 43.705 44.6109 43.2404 43.7037 42.7483L40.188 40.8411L39.6119 40.5305L38.3433 39.843L38.4634 39.4553L39.7779 35.2415L40.5435 32.7922L42.5581 33.8821ZM72.4429 42.1477V42.6409H71.8726L71.8716 42.1477H72.4429Z" fill="url(#paint3_linear_170_153)" fill-opacity="0.78" style="mix-blend-mode:overlay"/>
<path d="M77.1271 66.0366C76.0008 69.336 74.1275 72.4336 71.5052 75.061C69.2076 77.365 66.5482 79.0911 63.707 80.2432C60.8677 81.3952 57.8465 81.9712 54.8273 81.9712C49.7725 81.9712 44.7177 80.3568 40.5076 77.126L27.9928 92.1378C27.3319 92.9293 26.1332 92.9842 25.4038 92.2534L20.9924 87.8313C20.263 87.1025 20.3178 85.9015 21.1078 85.2393L36.0884 72.702C32.1736 67.5786 30.6366 61.2032 31.4794 55.0981C33.3234 56.6499 35.5682 58.1311 38.1357 59.4888C38.3977 63.3975 40.0149 67.2298 42.991 70.2118C49.5183 76.7518 60.1383 76.7518 66.6655 70.2118C67.7195 69.1558 68.6014 67.9939 69.3132 66.7596C72.1153 66.7185 74.7434 66.4736 77.1271 66.0366Z" fill="url(#paint4_linear_170_153)"/>
<path d="M31.4797 55.0981C33.3237 56.6498 35.5685 58.131 38.136 59.4887C38.398 63.3974 40.0153 67.2294 42.9914 70.2113C49.5187 76.7513 60.138 76.7512 66.6652 70.2113C67.5874 69.2874 68.3782 68.2828 69.0383 67.2192L69.3137 66.7592C72.1156 66.7181 74.7436 66.4734 77.1271 66.0366C76.0008 69.3359 74.1273 72.4336 71.5051 75.0609L71.0705 75.4857C68.8747 77.5782 66.371 79.1635 63.7072 80.2435L63.173 80.4525C60.4905 81.4651 57.6579 81.9711 54.8273 81.9711V81.4779C57.7839 81.4779 60.7422 80.9133 63.5217 79.7855L64.0412 79.5677C66.6271 78.4447 69.0473 76.8274 71.1564 74.7123L71.6291 74.225C73.7474 71.9757 75.3253 69.4006 76.3713 66.6664C74.2677 67.0049 71.9949 67.1997 69.5969 67.2465C68.8896 68.4278 68.0305 69.5423 67.0148 70.56C60.2948 77.2931 49.3618 77.2931 42.6418 70.56C39.6472 67.5594 37.9895 63.7222 37.6643 59.7944C35.4852 58.6263 33.5346 57.3685 31.8645 56.0483C31.2973 61.7553 32.8369 67.634 36.4807 72.4027L36.7668 72.7777L21.4251 85.6175C20.8564 86.0943 20.8178 86.9584 21.3411 87.4818L21.3421 87.4827L25.7532 91.9046C26.2771 92.4296 27.1391 92.3908 27.6145 91.8216L40.1291 76.8099L40.4319 76.4457L40.8078 76.7347C44.9287 79.8971 49.8774 81.4779 54.8273 81.4779V81.9711C49.7727 81.971 44.718 80.3569 40.508 77.1263L27.9934 92.138L27.8635 92.2776C27.2299 92.8895 26.2323 92.9348 25.5461 92.3812L25.4045 92.2532L20.9924 87.8314C20.2631 87.1025 20.3177 85.9008 21.1077 85.2386L36.0881 72.7016C32.1736 67.5782 30.637 61.203 31.4797 55.0981Z" fill="url(#paint5_linear_170_153)" fill-opacity="0.78" style="mix-blend-mode:overlay"/>
</g>
<defs>
<filter id="filter0_d_170_153" x="20.4785" y="18.2573" width="69.8359" height="76.978" filterUnits="userSpaceOnUse" color-interpolation-filters="sRGB">
<feFlood flood-opacity="0" result="BackgroundImageFix"/>
<feColorMatrix in="SourceAlpha" type="matrix" values="0 0 0 0 0 0 0 0 0 0 0 0 0 0 0 0 0 0 127 0" result="hardAlpha"/>
<feOffset dy="2.46723"/>
<feComposite in2="hardAlpha" operator="out"/>
<feColorMatrix type="matrix" values="0 0 0 0 0 0 0 0 0 0 0 0 0 0 0 0 0 0 0.1 0"/>
<feBlend mode="normal" in2="BackgroundImageFix" result="effect1_dropShadow_170_153"/>
<feBlend mode="normal" in="SourceGraphic" in2="effect1_dropShadow_170_153" result="shape"/>
</filter>
<linearGradient id="paint0_linear_170_153" x1="55.5126" y1="0" x2="55.5126" y2="111.025" gradientUnits="userSpaceOnUse">
<stop stop-color="#A5FF12"/>
<stop offset="1" stop-color="#CAFF74"/>
</linearGradient>
<linearGradient id="paint1_linear_170_153" x1="0" y1="55.5126" x2="111.025" y2="55.5126" gradientUnits="userSpaceOnUse">
<stop/>
<stop offset="1" stop-color="white"/>
</linearGradient>
<linearGradient id="paint2_linear_170_153" x1="58.0673" y1="18.2573" x2="58.0673" y2="61.1918" gradientUnits="userSpaceOnUse">
<stop stop-color="#060900"/>
<stop offset="1" stop-color="#101A00"/>
</linearGradient>
<linearGradient id="paint3_linear_170_153" x1="25.8199" y1="39.7244" x2="90.3139" y2="39.7244" gradientUnits="userSpaceOnUse">
<stop/>
<stop offset="1" stop-color="white"/>
</linearGradient>
<linearGradient id="paint4_linear_170_153" x1="48.8028" y1="55.0981" x2="48.8028" y2="92.7682" gradientUnits="userSpaceOnUse">
<stop stop-color="#060900"/>
<stop offset="1" stop-color="#101A00"/>
</linearGradient>
<linearGradient id="paint5_linear_170_153" x1="20.4788" y1="73.9332" x2="77.1274" y2="73.9332" gradientUnits="userSpaceOnUse">
<stop/>
<stop offset="1" stop-color="white"/>
</linearGradient>
</defs>
</svg>
