<svg width="494" height="112" viewBox="0 0 494 112" fill="none" xmlns="http://www.w3.org/2000/svg">
<path d="M0 12.3361C0 5.52307 5.52308 0 12.3361 0H98.6892C105.502 0 111.025 5.52308 111.025 12.3361V98.6892C111.025 105.502 105.502 111.025 98.6891 111.025H12.3361C5.52307 111.025 0 105.502 0 98.6891V12.3361Z" fill="url(#paint0_linear_170_110)"/>
<path d="M98.6894 110.532V111.025H12.3359V110.532H98.6894ZM110.532 98.6894V12.3359C110.532 5.79558 105.23 0.493325 98.6894 0.493164H12.3359C5.79555 0.493274 0.493267 5.79555 0.493164 12.3359V98.6894C0.493332 105.23 5.79558 110.532 12.3359 110.532V111.025L12.0176 111.021C5.45763 110.855 0.170242 105.568 0.00390625 99.0077L0 98.6894V12.3359C0.00010332 5.52303 5.52303 0.000110469 12.3359 0H98.6894L99.0077 0.00390625C105.673 0.172918 111.025 5.6295 111.025 12.3359V98.6894L111.021 99.0077C110.855 105.568 105.568 110.855 99.0077 111.021L98.6894 111.025V110.532C105.23 110.532 110.532 105.23 110.532 98.6894Z" fill="url(#paint1_linear_170_110)" fill-opacity="0.78" style="mix-blend-mode:overlay"/>
<g filter="url(#filter0_d_170_110)">
<path d="M83.4782 40.0223C82.7078 39.4384 81.8806 38.8663 81.0007 38.3079C80.1735 37.7848 79.3014 37.2754 78.3863 36.7797C78.3413 36.7562 78.2983 36.7327 78.2533 36.7092L78.2689 36.0783L78.3765 31.5838L78.4821 27.1735C78.4821 21.9012 72.2462 18.9584 68.0127 22.2362L67.1601 22.8965C64.1702 25.2103 59.8937 25.0281 57.1209 22.4713L54.3246 19.891C51.0825 16.9012 45.7578 18.1943 44.3284 22.3165L42.0621 29.5814C40.9807 29.699 39.9365 29.8499 38.9373 30.034C31.7823 31.3585 26.8312 34.3992 25.9571 38.7253C25.6775 40.1085 25.8319 41.5329 26.3716 42.9631C27.3318 45.5082 29.5082 48.065 32.6134 50.4298C34.344 51.7484 36.3659 53.0082 38.6244 54.17C43.2607 56.5544 48.9061 58.5333 55.1244 59.795C60.8792 60.9647 66.4209 61.3742 71.335 61.1195C73.8496 60.9902 76.1981 60.6865 78.3296 60.2222C84.1372 58.9565 88.3179 56.4957 89.761 53.0944C89.9468 52.6653 90.0856 52.2186 90.1776 51.7602C90.9578 47.9024 88.357 43.7253 83.4802 40.0223H83.4782ZM40.836 33.5117L42.3241 34.3169L45.2514 35.9039C45.5447 36.0626 45.838 36.2194 46.1352 36.3722C54.0841 40.4964 62.909 42.6496 71.8727 42.6418H72.4437L75.7269 42.6379H78.1106V42.634H78.1184L77.9913 48.208L77.9717 49.0897L76.5208 49.0819L70.5626 49.0505C69.9544 49.0505 69.3463 49.0407 68.7401 49.0211C61.0924 48.7782 53.5835 46.9639 46.673 43.6959C45.75 43.2629 44.8388 42.8025 43.9393 42.3146L40.4234 40.4083L39.8466 40.0967L38.9353 39.603L40.2494 35.3887L40.836 33.5117Z" fill="url(#paint2_linear_170_110)"/>
<path d="M44.3277 22.3159C45.7572 18.1939 51.0817 16.9014 54.3238 19.8911L57.1206 22.4712C59.8068 24.9479 63.9039 25.1964 66.8755 23.106L67.1597 22.896L68.0123 22.2359C72.2458 18.9581 78.482 21.901 78.482 27.1734L78.2525 36.7085C78.2975 36.732 78.3413 36.7563 78.3863 36.7798C79.3012 37.2754 80.1735 37.7851 81.0005 38.3081C81.6603 38.7268 82.2904 39.1532 82.8892 39.5864L83.4781 40.022H83.48C88.3568 43.7249 90.9575 47.9025 90.1773 51.7603C90.0854 52.2186 89.946 52.6653 89.7603 53.0942C88.3171 56.4954 84.1362 58.9565 78.3287 60.2222L77.5201 60.3882C75.6082 60.7592 73.535 61.0065 71.3345 61.1196L70.4058 61.1597C65.7269 61.3203 60.5187 60.891 55.1236 59.7944C48.9055 58.5327 43.2598 56.5538 38.6236 54.1694C36.3652 53.0077 34.3433 51.7477 32.6128 50.4292C29.7017 48.2121 27.6065 45.8266 26.565 43.44L26.3716 42.9624C25.8657 41.6216 25.6983 40.2863 25.9097 38.9849L25.9566 38.7251C26.8307 34.3991 31.7821 31.3582 38.9371 30.0337C39.9362 29.8496 40.9808 29.6991 42.0621 29.5816L44.3277 22.3159ZM53.9898 20.2534C51.0021 17.4982 46.1043 18.7007 44.7945 22.478L42.5328 29.728L42.4361 30.0366L42.1148 30.0718C41.0446 30.1881 40.0122 30.3363 39.0259 30.5181C35.4897 31.1727 32.5315 32.2471 30.3619 33.6665C28.3297 34.9961 27.0155 36.6101 26.5269 38.4517L26.44 38.8228C26.1813 40.1024 26.3208 41.4323 26.8326 42.7886C27.7473 45.2134 29.8454 47.7014 32.9117 50.0366C34.616 51.3352 36.6135 52.5804 38.8501 53.731C43.4423 56.0926 49.0437 58.0574 55.2222 59.311L56.2915 59.52C61.6248 60.5212 66.7443 60.8631 71.3091 60.6265L72.2349 60.5708C74.3772 60.4212 76.3848 60.1405 78.2242 59.7398C83.9909 58.483 87.9606 56.0726 89.3062 52.9019L89.3082 52.898C89.4798 52.5014 89.6077 52.0876 89.6929 51.6626L89.6939 51.6616C90.409 48.124 88.0565 44.1474 83.2798 40.4907L83.1802 40.4155C82.4217 39.8407 81.606 39.2757 80.7369 38.7241C79.9198 38.2074 79.057 37.7042 78.1509 37.2134C78.1285 37.2016 78.1062 37.1897 78.0865 37.1792C78.0643 37.1674 78.0441 37.1565 78.024 37.146L77.7515 37.0034L77.9888 27.1734C77.9888 22.3338 72.2413 19.5858 68.314 22.6265L67.4615 23.2866C64.2817 25.7473 59.7359 25.554 56.7857 22.8335L53.9898 20.2534ZM42.5581 33.8823L42.5591 33.8833L45.4849 35.4692L46.3609 35.9331L46.3619 35.9341C54.2404 40.0218 62.9873 42.1557 71.8716 42.148L71.8726 42.6411L71.0328 42.6362C62.3581 42.5132 53.8349 40.367 46.1343 36.3716L45.2505 35.9038L40.8355 33.5112L38.9351 39.603L39.8462 40.0962L40.4234 40.4077L43.939 42.314C44.8385 42.8018 45.7495 43.2628 46.6724 43.6958C53.5829 46.9638 61.0921 48.7781 68.7398 49.021C69.3459 49.0406 69.954 49.0503 70.5621 49.0503L77.9712 49.0894L78.1177 42.6333H78.1099V42.6372H75.7261L72.4429 42.6411V42.148L75.7261 42.1441H77.6167V42.1401H78.6226L78.6031 42.98V43.1314H78.6001L78.4537 49.5855L70.5591 49.5435C69.9468 49.5434 69.3345 49.5339 68.7242 49.5142C61.0088 49.2691 53.4331 47.439 46.4615 44.1421C45.5304 43.7053 44.6109 43.2406 43.7037 42.7485L40.188 40.8413L39.6119 40.5308L38.3433 39.8433L38.4634 39.4556L39.7779 35.2417L40.5435 32.7925L42.5581 33.8823ZM72.4429 42.148V42.6411H71.8726L71.8716 42.148H72.4429Z" fill="url(#paint3_linear_170_110)" fill-opacity="0.78" style="mix-blend-mode:overlay"/>
<path d="M77.1271 66.0371C76.0008 69.3365 74.1275 72.4341 71.5052 75.0614C69.2076 77.3655 66.5482 79.0916 63.707 80.2437C60.8677 81.3957 57.8465 81.9717 54.8273 81.9717C49.7725 81.9717 44.7177 80.3573 40.5076 77.1265L27.9928 92.1383C27.3319 92.9298 26.1332 92.9847 25.4038 92.2539L20.9924 87.8318C20.263 87.103 20.3178 85.902 21.1078 85.2397L36.0884 72.7025C32.1736 67.5791 30.6366 61.2037 31.4794 55.0986C33.3234 56.6504 35.5682 58.1316 38.1357 59.4893C38.3977 63.398 40.0149 67.2303 42.991 70.2123C49.5183 76.7523 60.1383 76.7523 66.6655 70.2123C67.7195 69.1563 68.6014 67.9944 69.3132 66.7601C72.1153 66.7189 74.7434 66.474 77.1271 66.0371Z" fill="url(#paint4_linear_170_110)"/>
<path d="M31.4797 55.0986C33.3237 56.6503 35.5685 58.1315 38.136 59.4892C38.398 63.3979 40.0153 67.2299 42.9914 70.2118C49.5187 76.7518 60.138 76.7517 66.6652 70.2118C67.5874 69.2879 68.3782 68.2833 69.0383 67.2197L69.3137 66.7597C72.1156 66.7185 74.7436 66.4739 77.1271 66.0371C76.0008 69.3364 74.1273 72.4341 71.5051 75.0614L71.0705 75.4862C68.8747 77.5787 66.371 79.1639 63.7072 80.244L63.173 80.453C60.4905 81.4656 57.6579 81.9715 54.8273 81.9715V81.4784C57.7839 81.4784 60.7422 80.9138 63.5217 79.786L64.0412 79.5682C66.6271 78.4452 69.0473 76.8278 71.1564 74.7128L71.6291 74.2255C73.7474 71.9762 75.3253 69.4011 76.3713 66.6669C74.2677 67.0054 71.9949 67.2002 69.5969 67.247C68.8896 68.4282 68.0305 69.5428 67.0148 70.5605C60.2948 77.2936 49.3618 77.2936 42.6418 70.5605C39.6472 67.5599 37.9895 63.7227 37.6643 59.7949C35.4852 58.6268 33.5346 57.369 31.8645 56.0488C31.2973 61.7557 32.8369 67.6344 36.4807 72.4032L36.7668 72.7782L21.4251 85.618C20.8564 86.0948 20.8178 86.9589 21.3411 87.4823L21.3421 87.4832L25.7532 91.9051C26.2771 92.4301 27.1391 92.3913 27.6145 91.8221L40.1291 76.8104L40.4319 76.4462L40.8078 76.7352C44.9287 79.8976 49.8774 81.4783 54.8273 81.4784V81.9715C49.7727 81.9715 44.718 80.3574 40.508 77.1268L27.9934 92.1385L27.8635 92.2781C27.2299 92.89 26.2323 92.9353 25.5461 92.3816L25.4045 92.2537L20.9924 87.8319C20.2631 87.103 20.3177 85.9013 21.1077 85.2391L36.0881 72.7021C32.1736 67.5787 30.637 61.2034 31.4797 55.0986Z" fill="url(#paint5_linear_170_110)" fill-opacity="0.78" style="mix-blend-mode:overlay"/>
</g>
<path d="M484.786 106.535C478.44 106.535 473.764 104.991 470.759 101.901C467.836 98.8118 466.375 94.3447 466.375 88.5V13.8542H484.911V92.1321H493.177V106.535H484.786Z" fill="black"/>
<path d="M454.11 106.535C447.764 106.535 443.089 104.991 440.083 101.901C437.16 98.8118 435.699 94.3447 435.699 88.5V13.8542H454.235V92.1321H462.502V106.535H454.11Z" fill="black"/>
<path d="M419.25 106.535C415.91 106.535 413.113 105.491 410.859 103.404C408.688 101.317 407.31 98.5195 406.725 95.0126H405.974C404.972 99.2709 402.759 102.527 399.336 104.782C395.913 106.953 391.696 108.038 386.686 108.038C380.09 108.038 375.039 106.285 371.532 102.778C368.025 99.2709 366.271 94.6369 366.271 88.8756C366.271 81.9454 368.776 76.8104 373.786 73.4706C378.879 70.0472 385.768 68.3355 394.452 68.3355H404.847V64.2025C404.847 61.0296 404.012 58.5247 402.342 56.6878C400.672 54.7674 397.875 53.8072 393.951 53.8072C390.277 53.8072 387.354 54.6004 385.183 56.1868C383.013 57.7733 381.217 59.5684 379.798 61.5723L368.776 51.8033C371.448 47.8789 374.788 44.8313 378.796 42.6604C382.887 40.406 388.398 39.2788 395.328 39.2788C404.68 39.2788 411.693 41.3245 416.369 45.4158C421.045 49.5071 423.383 55.4771 423.383 63.3258V92.132H429.52V106.535H419.25ZM393.575 95.1379C396.664 95.1379 399.294 94.4699 401.465 93.134C403.72 91.798 404.847 89.6271 404.847 86.6212V78.8561H395.829C388.565 78.8561 384.933 81.3192 384.933 86.2455V88.1242C384.933 90.5456 385.684 92.3407 387.187 93.5097C388.69 94.5951 390.819 95.1379 393.575 95.1379Z" fill="black"/>
<path d="M331.658 108.038C325.729 108.038 320.386 107.12 315.626 105.283C310.867 103.362 306.817 100.565 303.478 96.8914C300.138 93.134 297.549 88.5 295.712 82.9892C293.875 77.395 292.957 70.8823 292.957 63.4511C292.957 56.1034 293.875 49.5907 295.712 43.9129C297.549 38.1517 300.138 33.3506 303.478 29.5098C306.817 25.5855 310.867 22.6214 315.626 20.6174C320.386 18.6135 325.729 17.6116 331.658 17.6116C339.757 17.6116 346.436 19.2815 351.697 22.6214C356.957 25.8777 361.174 31.0545 364.346 38.1517L347.939 46.6683C346.77 42.9945 344.934 40.0721 342.429 37.9012C340.007 35.6468 336.417 34.5196 331.658 34.5196C326.063 34.5196 321.555 36.3565 318.131 40.0303C314.791 43.6207 313.121 48.881 313.121 55.8112V69.8386C313.121 76.7687 314.791 82.0708 318.131 85.7446C321.555 89.335 326.063 91.1301 331.658 91.1301C336.333 91.1301 340.049 89.8777 342.804 87.3728C345.643 84.7844 347.731 81.695 349.067 78.1047L364.597 87.1223C361.341 93.802 357.04 98.9788 351.697 102.653C346.436 106.243 339.757 108.038 331.658 108.038Z" fill="black"/>
<path d="M226.99 106.535V40.7817H245.526V51.9285H246.278C247.447 48.5052 249.493 45.541 252.415 43.0361C255.337 40.5313 259.387 39.2788 264.564 39.2788C271.327 39.2788 276.42 41.5332 279.843 46.042C283.35 50.5508 285.104 56.98 285.104 65.3297V106.535H266.568V66.8326C266.568 62.5743 265.9 59.4432 264.564 57.4393C263.228 55.3519 260.848 54.3081 257.425 54.3081C255.922 54.3081 254.461 54.5169 253.041 54.9344C251.622 55.2684 250.327 55.8528 249.159 56.6878C248.073 57.5228 247.196 58.5665 246.528 59.8189C245.86 60.9879 245.526 62.3656 245.526 63.952V106.535H226.99Z" fill="black"/>
<path d="M179.915 108.038C174.154 108.038 168.893 107.078 164.134 105.158C159.375 103.237 155.325 100.398 151.985 96.6409C148.646 92.8001 146.057 88.0825 144.22 82.4883C142.383 76.8105 141.465 70.256 141.465 62.8249C141.465 55.3937 142.383 48.881 144.22 43.2867C146.057 37.609 148.646 32.8914 151.985 29.1341C155.325 25.2932 159.375 22.4126 164.134 20.4922C168.893 18.5718 174.154 17.6116 179.915 17.6116C185.676 17.6116 190.936 18.5718 195.696 20.4922C200.455 22.4126 204.505 25.2932 207.844 29.1341C211.184 32.8914 213.773 37.609 215.61 43.2867C217.447 48.881 218.365 55.3937 218.365 62.8249C218.365 70.256 217.447 76.8105 215.61 82.4883C213.773 88.0825 211.184 92.8001 207.844 96.6409C204.505 100.398 200.455 103.237 195.696 105.158C190.936 107.078 185.676 108.038 179.915 108.038ZM179.915 91.1301C185.676 91.1301 190.143 89.2515 193.316 85.4941C196.572 81.7368 198.201 76.3513 198.201 69.3376V56.3121C198.201 49.2984 196.572 43.9129 193.316 40.1556C190.143 36.3983 185.676 34.5196 179.915 34.5196C174.154 34.5196 169.645 36.3983 166.389 40.1556C163.216 43.9129 161.629 49.2984 161.629 56.3121V69.3376C161.629 76.3513 163.216 81.7368 166.389 85.4941C169.645 89.2515 174.154 91.1301 179.915 91.1301Z" fill="black"/>
<defs>
<filter id="filter0_d_170_110" x="20.4785" y="18.2576" width="69.8359" height="76.9785" filterUnits="userSpaceOnUse" color-interpolation-filters="sRGB">
<feFlood flood-opacity="0" result="BackgroundImageFix"/>
<feColorMatrix in="SourceAlpha" type="matrix" values="0 0 0 0 0 0 0 0 0 0 0 0 0 0 0 0 0 0 127 0" result="hardAlpha"/>
<feOffset dy="2.46723"/>
<feComposite in2="hardAlpha" operator="out"/>
<feColorMatrix type="matrix" values="0 0 0 0 0 0 0 0 0 0 0 0 0 0 0 0 0 0 0.1 0"/>
<feBlend mode="normal" in2="BackgroundImageFix" result="effect1_dropShadow_170_110"/>
<feBlend mode="normal" in="SourceGraphic" in2="effect1_dropShadow_170_110" result="shape"/>
</filter>
<linearGradient id="paint0_linear_170_110" x1="55.5126" y1="0" x2="55.5126" y2="111.025" gradientUnits="userSpaceOnUse">
<stop stop-color="#A5FF12"/>
<stop offset="1" stop-color="#CAFF74"/>
</linearGradient>
<linearGradient id="paint1_linear_170_110" x1="0" y1="55.5126" x2="111.025" y2="55.5126" gradientUnits="userSpaceOnUse">
<stop/>
<stop offset="1" stop-color="white"/>
</linearGradient>
<linearGradient id="paint2_linear_170_110" x1="58.0673" y1="18.2576" x2="58.0673" y2="61.1921" gradientUnits="userSpaceOnUse">
<stop stop-color="#060900"/>
<stop offset="1" stop-color="#101A00"/>
</linearGradient>
<linearGradient id="paint3_linear_170_110" x1="25.8199" y1="39.7246" x2="90.3139" y2="39.7246" gradientUnits="userSpaceOnUse">
<stop/>
<stop offset="1" stop-color="white"/>
</linearGradient>
<linearGradient id="paint4_linear_170_110" x1="48.8028" y1="55.0986" x2="48.8028" y2="92.7687" gradientUnits="userSpaceOnUse">
<stop stop-color="#060900"/>
<stop offset="1" stop-color="#101A00"/>
</linearGradient>
<linearGradient id="paint5_linear_170_110" x1="20.4788" y1="73.9337" x2="77.1274" y2="73.9337" gradientUnits="userSpaceOnUse">
<stop/>
<stop offset="1" stop-color="white"/>
</linearGradient>
</defs>
</svg>
