<svg width="284" height="302" viewBox="0 0 284 302" fill="none" xmlns="http://www.w3.org/2000/svg">
<path d="M255.346 88.2152C252.224 85.8488 248.871 83.53 245.305 81.2668C241.952 79.1465 238.417 77.0818 234.708 75.0727C234.526 74.9774 234.351 74.8821 234.169 74.7868L234.233 72.2298L234.668 54.0129L235.096 36.1375C235.096 14.768 209.822 2.84048 192.663 16.1259L189.207 18.8021C177.089 28.1805 159.755 27.442 148.517 17.0789L137.183 6.62044C124.042 -5.49768 102.461 -0.256554 96.6671 16.4515L87.4813 45.8971C83.0984 46.3736 78.8661 46.9851 74.8161 47.7315C45.8162 53.0997 25.7485 65.4243 22.2057 82.9582C21.0723 88.5646 21.6985 94.3378 23.8859 100.135C27.7774 110.45 36.5987 120.813 49.1846 130.398C56.1988 135.743 64.3939 140.849 73.548 145.558C92.3397 155.222 115.221 163.243 140.425 168.357C163.75 173.098 186.211 174.757 206.128 173.725C216.321 173.201 225.839 171.97 234.478 170.088C258.017 164.958 274.962 154.984 280.812 141.198C281.564 139.459 282.127 137.649 282.5 135.79C285.662 120.154 275.121 103.224 255.354 88.2152H255.346ZM82.5119 61.827L88.5434 65.0908L100.408 71.523C101.597 72.1663 102.786 72.8016 103.99 73.421C136.208 90.137 171.977 98.8643 208.308 98.8325H210.622L223.929 98.8166H233.591V98.8007H233.622L233.107 121.393L233.028 124.967L227.147 124.935L202.998 124.808C200.533 124.808 198.068 124.768 195.611 124.689C164.614 123.704 134.179 116.351 106.17 103.105C102.429 101.35 98.7357 99.4837 95.0899 97.5063L80.8396 89.7796L78.5016 88.517L74.8082 86.5158L80.1342 69.4345L82.5119 61.827Z" fill="url(#paint0_linear_244_297)"/>
<path d="M97.6123 16.7793C103.077 1.02038 123.236 -4.12617 135.907 6.82227L136.505 7.35547L147.839 17.8135V17.8145C159.256 28.3419 176.758 29.2429 189.229 20.0391L189.819 19.5928L193.274 16.917C209.806 4.1171 234.078 15.6359 234.097 36.1133L233.669 53.9893L233.232 72.2051L233.17 74.7617L233.154 75.3848L233.706 75.6729C233.793 75.718 233.878 75.7636 233.968 75.8115C234.052 75.8565 234.141 75.9036 234.231 75.9512V75.9521C237.922 77.951 241.437 80.0034 244.769 82.1104V82.1113C248.314 84.361 251.643 86.6643 254.742 89.0127L255.011 89.2148H255.015C274.538 104.119 284.547 120.623 281.52 135.592V135.594C281.161 137.384 280.618 139.127 279.894 140.801L279.891 140.808C274.24 154.127 257.722 163.999 234.266 169.111C225.686 170.98 216.222 172.205 206.077 172.727H206.076C186.25 173.754 163.873 172.102 140.624 167.377H140.623C115.501 162.279 92.7078 154.287 74.0059 144.669C64.8961 139.983 56.752 134.906 49.791 129.603H49.79C37.283 120.078 28.621 109.854 24.8213 99.7822C22.6903 94.135 22.0946 88.5528 23.1855 83.1562C24.8887 74.7271 30.5767 67.465 39.5117 61.6191C48.4512 55.7703 60.5809 51.3836 74.998 48.7148L74.9971 48.7139C79.0209 47.9722 83.2294 47.3656 87.5898 46.8916L88.2412 46.8203L88.4355 46.1953L97.6123 16.7793ZM81.5576 61.5283L79.1797 69.1357V69.1367L73.8535 86.2178L73.6084 87.0029L74.332 87.3955L78.0254 89.3965H78.0264L80.3633 90.6582V90.6592L94.6133 98.3857C98.2749 100.372 101.985 102.245 105.742 104.008V104.009C133.875 117.313 164.444 124.698 195.578 125.688V125.688C198.044 125.768 200.518 125.807 202.992 125.807V125.808L227.142 125.935L233.022 125.967L234.006 125.972L234.027 124.989L234.106 121.416L234.622 98.8232L234.646 97.8008H232.591V97.8164H223.928L210.621 97.832H208.307C172.136 97.8636 136.526 89.1753 104.451 72.5332L104.447 72.5312C103.252 71.9165 102.07 71.2853 100.884 70.6436H100.885L89.0195 64.2119V64.2109L82.9883 60.9473L81.9199 60.3691L81.5576 61.5283Z" stroke="url(#paint1_linear_244_297)" stroke-opacity="0.78" stroke-width="2" style="mix-blend-mode:overlay"/>
<path d="M229.604 193.657C225.039 207.03 217.446 219.585 206.818 230.234C197.505 239.573 186.726 246.569 175.211 251.238C163.702 255.907 151.457 258.242 139.22 258.242C118.732 258.242 98.2446 251.699 81.1807 238.604L30.4566 299.448C27.7777 302.657 22.9193 302.879 19.963 299.917L2.08276 281.994C-0.873503 279.04 -0.651585 274.172 2.55037 271.488L63.2687 220.673C47.4016 199.907 41.172 174.066 44.588 149.322C52.0619 155.611 61.1605 161.615 71.5669 167.118C72.6289 182.96 79.1834 198.493 91.2462 210.58C117.702 237.087 160.746 237.087 187.202 210.58C191.474 206.299 195.048 201.59 197.933 196.587C209.291 196.421 219.943 195.428 229.604 193.657Z" fill="url(#paint2_linear_244_297)"/>
<path d="M45.3496 151.252C52.4893 157.071 60.9959 162.619 70.6094 167.738C71.801 183.619 78.4379 199.162 90.5381 211.286C117.385 238.185 161.064 238.185 187.91 211.286C192.105 207.083 195.635 202.471 198.512 197.576C209.049 197.396 218.985 196.506 228.091 194.94C223.524 207.571 216.201 219.416 206.11 229.527V229.528C197.183 238.481 186.894 245.257 175.9 249.872L174.835 250.311C163.448 254.931 151.33 257.242 139.22 257.242C118.944 257.242 98.6722 250.766 81.7891 237.81L81.0273 237.225L80.4121 237.964L29.6895 298.807C27.4587 301.479 23.4704 301.741 20.9141 299.441L20.6709 299.211L2.79102 281.288L2.79004 281.287L2.55957 281.044C0.338663 278.571 0.511174 274.747 2.94238 272.476L3.19238 272.255L63.9102 221.439L64.6445 220.826L64.0635 220.065C48.7469 200.02 42.5053 175.192 45.3496 151.252Z" stroke="url(#paint3_linear_244_297)" stroke-opacity="0.78" stroke-width="2" style="mix-blend-mode:overlay"/>
<defs>
<linearGradient id="paint0_linear_244_297" x1="152.353" y1="0.273631" x2="152.353" y2="173.746" gradientUnits="userSpaceOnUse">
<stop stop-color="#C3ACFF"/>
<stop offset="1" stop-color="#8555FF"/>
</linearGradient>
<linearGradient id="paint1_linear_244_297" x1="152.353" y1="0" x2="152.353" y2="174.019" gradientUnits="userSpaceOnUse">
<stop stop-color="white"/>
<stop offset="1" stop-color="#760299"/>
</linearGradient>
<linearGradient id="paint2_linear_244_297" x1="114.802" y1="149.562" x2="114.802" y2="301.764" gradientUnits="userSpaceOnUse">
<stop stop-color="#C3ACFF"/>
<stop offset="1" stop-color="#8555FF"/>
</linearGradient>
<linearGradient id="paint3_linear_244_297" x1="114.802" y1="149.322" x2="114.802" y2="302.004" gradientUnits="userSpaceOnUse">
<stop stop-color="white"/>
<stop offset="1" stop-color="#760299"/>
</linearGradient>
</defs>
</svg>
