<svg width="197" height="221" viewBox="0 0 197 221" fill="none" xmlns="http://www.w3.org/2000/svg">
<rect y="194.442" width="17.9091" height="25.5844" rx="5" fill="#BB7D00"/>
<rect width="17.9091" height="25.5844" rx="5" transform="matrix(-1 0 0 1 197 194.442)" fill="#BB7D00"/>
<rect y="64.814" width="17.9091" height="25.5844" rx="5" fill="#BB7D00"/>
<rect width="17.9091" height="25.5844" rx="5" transform="matrix(-1 0 0 1 197 64.814)" fill="#BB7D00"/>
<rect y="129.628" width="17.9091" height="25.5844" rx="5" fill="#BB7D00"/>
<rect width="17.9091" height="25.5844" rx="5" transform="matrix(-1 0 0 1 197 129.628)" fill="#BB7D00"/>
<rect x="23.8789" y="162.035" width="28.1429" height="25.5844" rx="5" fill="#BB7D00"/>
<rect width="28.1429" height="25.5844" rx="5" transform="matrix(-1 0 0 1 173.121 162.035)" fill="#BB7D00"/>
<rect x="36.6709" y="129.628" width="15.3506" height="25.5844" rx="5" fill="#BB7D00"/>
<rect width="15.3506" height="25.5844" rx="5" transform="matrix(-1 0 0 1 160.329 129.628)" fill="#BB7D00"/>
<rect x="23.8789" y="97.2212" width="28.1429" height="25.5844" rx="5" fill="#BB7D00"/>
<rect width="28.1429" height="25.5844" rx="5" transform="matrix(-1 0 0 1 173.121 97.2212)" fill="#BB7D00"/>
<rect width="17.9091" height="25.5844" rx="5" transform="matrix(-1 0 0 1 162.887 0)" fill="#BB7D00"/>
<rect width="17.9091" height="25.5844" rx="5" transform="matrix(-1 0 0 1 52.0217 0)" fill="#BB7D00"/>
<rect width="12.7922" height="25.5844" rx="5" transform="matrix(-1 0 0 1 139.009 32.4072)" fill="#BB7D00"/>
<rect width="13.645" height="25.5844" rx="5" transform="matrix(-1 0 0 1 71.6365 32.4072)" fill="#BB7D00"/>
<rect x="57.9915" y="162.035" width="81.0173" height="25.5844" rx="5" fill="#BB7D00"/>
<rect x="57.9915" y="64.814" width="81.0173" height="25.5844" rx="5" fill="#BB7D00"/>
<rect x="57.9915" y="129.628" width="81.0173" height="25.5844" rx="5" fill="#BB7D00"/>
<rect x="77.606" y="32.4072" width="42.6407" height="25.5844" rx="5" fill="#BB7D00"/>
<rect x="57.9915" y="97.2212" width="81.0173" height="25.5844" rx="5" fill="#BB7D00"/>
</svg>
