<svg width="1782" height="497" viewBox="0 0 1782 497" fill="none" xmlns="http://www.w3.org/2000/svg">
<g filter="url(#filter0_din_248_414)">
<rect x="3.71191" width="489" height="489" rx="100" fill="url(#paint0_linear_248_414)"/>
<rect x="8.35138" y="4.63947" width="479.721" height="479.721" rx="95.3605" stroke="#A582FF" stroke-opacity="0.39" stroke-width="9.27894"/>
</g>
<path d="M371.726 176.211C368.339 173.649 364.703 171.139 360.835 168.689C357.199 166.394 353.365 164.159 349.342 161.984C349.144 161.881 348.955 161.778 348.757 161.675L348.826 158.907L349.299 139.187L349.763 119.837C349.763 96.7041 322.349 83.7926 303.738 98.1741L299.991 101.071C286.847 111.223 268.047 110.424 255.857 99.2057L243.565 87.8844C229.312 74.7665 205.905 80.4401 199.621 98.5266L189.658 130.401C184.904 130.917 180.314 131.579 175.921 132.387C144.467 138.198 122.702 151.54 118.859 170.52C117.63 176.589 118.309 182.839 120.681 189.114C124.902 200.28 134.47 211.498 148.121 221.874C155.728 227.659 164.617 233.187 174.546 238.284C194.927 248.746 219.745 257.428 247.081 262.964C272.379 268.096 296.741 269.893 318.343 268.775C329.398 268.208 339.722 266.875 349.092 264.838C374.623 259.285 393.002 248.488 399.346 233.565C400.163 231.682 400.773 229.722 401.177 227.711C404.607 210.785 393.174 192.458 371.735 176.211H371.726ZM184.268 147.645L190.81 151.179L203.678 158.141C204.968 158.838 206.257 159.525 207.564 160.196C242.507 178.291 281.302 187.738 320.707 187.704H323.218L337.651 187.687H348.13V187.67H348.164L347.605 212.126L347.519 215.994L341.141 215.96L314.948 215.822C312.275 215.822 309.601 215.779 306.936 215.693C273.316 214.627 240.307 206.667 209.928 192.329C205.87 190.429 201.864 188.409 197.91 186.268L182.454 177.904L179.918 176.537L175.912 174.371L181.689 155.881L184.268 147.645Z" fill="white"/>
<path d="M343.805 290.352C338.853 304.828 330.618 318.418 319.091 329.946C308.99 340.055 297.299 347.629 284.809 352.683C272.327 357.738 259.046 360.265 245.773 360.265C223.552 360.265 201.331 353.182 182.823 339.006L127.807 404.871C124.901 408.344 119.632 408.584 116.426 405.378L97.0324 385.976C93.826 382.779 94.0667 377.509 97.5396 374.604L163.395 319.596C146.186 297.117 139.429 269.145 143.134 242.359C151.24 249.167 161.109 255.666 172.396 261.623C173.548 278.773 180.657 295.587 193.74 308.67C222.434 337.365 269.121 337.365 297.815 308.67C302.448 304.037 306.325 298.939 309.454 293.524C321.773 293.343 333.326 292.269 343.805 290.352Z" fill="white"/>
<path d="M716.692 395.207C694.683 395.207 674.673 391.847 656.701 385.115C638.716 378.396 623.212 368.573 610.189 355.659C597.166 342.745 587.174 326.955 580.187 308.25C573.199 289.557 569.712 268.245 569.712 244.298C569.712 220.352 573.199 199.106 580.187 180.549C587.161 161.991 597.166 146.255 610.189 133.341C623.212 120.427 638.702 110.617 656.701 103.885C674.686 97.1659 694.683 93.793 716.692 93.793C738.701 93.793 759.167 97.1659 777.287 103.885C795.406 110.617 810.977 120.427 824 133.341C837.023 146.255 847.015 161.991 854.002 180.549C860.976 199.106 864.477 220.352 864.477 244.298C864.477 268.245 860.99 289.557 854.002 308.25C847.015 326.942 836.956 342.745 823.799 355.659C810.642 368.573 795.071 378.396 777.086 385.115C759.1 391.834 738.969 395.207 716.692 395.207ZM716.692 341.549C733.873 341.549 748.639 337.921 760.991 330.651C773.33 323.394 782.933 312.563 789.787 298.171C796.627 283.779 800.06 265.826 800.06 244.312C800.06 228.173 798.048 214.117 794.025 202.157C790.001 190.197 784.422 180.105 777.314 171.894C770.192 163.697 761.474 157.57 751.134 153.538C740.793 149.507 729.326 147.491 716.706 147.491C700.061 147.491 685.563 151.066 673.224 158.188C660.872 165.323 651.283 176.074 644.429 190.466C637.589 204.858 634.156 222.811 634.156 244.325C634.156 260.464 636.1 274.655 639.99 286.883C643.879 299.125 649.459 309.271 656.701 317.347C663.943 325.41 672.607 331.47 682.666 335.502C692.739 339.533 704.072 341.549 716.692 341.549Z" fill="black"/>
<path d="M884.085 390.047L888.055 176.826C888.068 176.007 888.739 175.348 889.557 175.348H943.432C944.223 175.348 944.894 175.966 944.934 176.773L947.174 213.069C947.228 213.862 947.885 214.493 948.676 214.493C949.28 214.493 949.816 214.13 950.058 213.566C955.972 199.51 964.971 188.988 977.056 182.014C989.394 174.891 1003.22 171.317 1018.52 171.317C1029.25 171.317 1039.26 172.997 1048.53 176.356C1057.79 179.716 1065.84 184.903 1072.68 191.89C1079.52 198.892 1084.9 208.097 1088.79 219.532C1092.68 230.968 1094.62 244.742 1094.62 260.881L1098.59 390.007C1098.62 390.867 1097.92 391.579 1097.05 391.565L1032.93 390.289C1032.08 390.275 1031.43 389.563 1031.45 388.73L1035.42 273.795C1035.42 261.687 1034.02 251.609 1031.2 243.533C1028.38 235.47 1024.01 229.476 1018.11 225.579C1012.19 221.682 1004.42 219.734 994.759 219.734C984.553 219.734 975.969 222.153 968.995 226.99C962.007 231.828 956.643 238.157 952.887 245.951C949.119 253.759 947.254 262.225 947.254 271.363L951.224 390.033C951.251 390.893 950.567 391.592 949.722 391.592H885.587C884.742 391.592 884.058 390.893 884.085 390.047Z" fill="black"/>
<path d="M1260.41 395.207C1238.4 395.207 1218.39 391.847 1200.42 385.115C1182.43 378.396 1166.93 368.573 1153.9 355.659C1140.88 342.745 1130.89 326.955 1123.9 308.25C1116.91 289.557 1113.43 268.245 1113.43 244.298C1113.43 220.352 1116.91 199.106 1123.9 180.549C1130.88 161.991 1140.88 146.255 1153.9 133.341C1166.93 120.427 1182.42 110.617 1200.42 103.885C1218.4 97.1659 1238.4 93.793 1260.41 93.793C1285.64 93.793 1308.06 98.1738 1327.65 106.908C1347.25 115.657 1363.16 127.831 1375.37 143.419C1387.26 158.604 1394.5 176.463 1397.11 196.983C1397.24 197.884 1396.51 198.69 1395.61 198.69H1334.87C1334.19 198.69 1333.6 198.219 1333.42 197.548C1330.94 187.805 1326.54 179.245 1320.21 171.854C1313.63 164.195 1305.31 158.201 1295.25 153.901C1285.18 149.601 1273.56 147.451 1260.42 147.451C1243.78 147.451 1229.28 151.025 1216.94 158.147C1204.59 165.283 1195 176.033 1188.15 190.425C1181.31 204.818 1177.87 222.771 1177.87 244.285C1177.87 260.424 1179.82 274.614 1183.71 286.843C1187.6 299.085 1193.17 309.231 1200.42 317.307C1207.66 325.37 1216.32 331.43 1226.38 335.462C1236.45 339.493 1247.79 341.509 1260.41 341.509C1273.03 341.509 1284.43 339.359 1294.63 335.058C1304.83 330.758 1313.36 324.711 1320.2 316.904C1326.78 309.405 1331.18 300.792 1333.42 291.049C1333.58 290.364 1334.19 289.866 1334.88 289.866H1395.61C1396.51 289.866 1397.22 290.659 1397.13 291.56C1394.77 311.838 1387.58 329.697 1375.58 345.137C1363.22 361.007 1347.18 373.316 1327.45 382.051C1307.72 390.799 1285.38 395.167 1260.41 395.167V395.207Z" fill="black"/>
<path d="M1495.17 395.207C1482.01 395.207 1470.06 392.721 1459.33 387.749C1448.59 382.777 1439.33 375.507 1431.54 365.966C1423.75 356.425 1417.78 344.653 1413.62 330.664C1409.45 316.689 1407.39 300.953 1407.39 283.457C1407.39 259.792 1411.07 239.555 1418.46 222.744C1425.84 205.933 1436.11 193.167 1449.27 184.419C1462.42 175.684 1477.72 171.303 1495.18 171.303C1506.18 171.303 1516.12 172.983 1524.98 176.342C1533.83 179.702 1541.49 184.405 1547.93 190.466C1554.11 196.271 1558.69 203.017 1561.66 210.677C1561.89 211.254 1562.44 211.644 1563.06 211.644H1563.22C1564.22 211.644 1564.96 210.663 1564.67 209.696L1554.85 177.283C1554.55 176.316 1555.28 175.335 1556.3 175.335H1622.14C1622.97 175.335 1623.64 176.007 1623.64 176.84V390.06C1623.64 390.893 1622.97 391.565 1622.14 391.565H1556.28C1555.28 391.565 1554.55 390.584 1554.84 389.617L1564.67 356.801C1564.96 355.834 1564.24 354.853 1563.22 354.853H1563.07C1562.44 354.853 1561.89 355.242 1561.68 355.834C1557.29 367.484 1549.3 376.904 1537.67 384.107C1525.72 391.511 1511.56 395.207 1495.19 395.207H1495.17ZM1516.51 347.206C1527.23 347.206 1536.17 344.922 1543.29 340.353C1550.4 335.784 1555.71 329.455 1559.2 321.392C1562.68 313.329 1564.43 304.178 1564.43 293.952V272.572C1564.43 262.077 1562.62 252.872 1558.99 244.93C1555.37 237.001 1549.99 230.753 1542.89 226.17C1535.76 221.602 1527.52 219.317 1518.13 219.317C1506.85 219.317 1497.53 221.87 1490.14 226.977C1482.75 232.083 1477.18 239.42 1473.43 248.961C1469.66 258.516 1467.79 270.005 1467.79 283.457C1467.79 296.908 1469.54 307.658 1473.02 317.347C1476.51 327.036 1481.88 334.427 1489.13 339.533C1496.37 344.64 1505.51 347.193 1516.52 347.193L1516.51 347.206Z" fill="black"/>
<path d="M1643.49 390.073V98.9797C1643.49 98.1465 1644.16 97.4746 1644.99 97.4746H1701.16C1701.99 97.4746 1702.66 98.1465 1702.66 98.9797V390.073C1702.66 390.906 1701.99 391.578 1701.16 391.578H1644.99C1644.16 391.578 1643.49 390.906 1643.49 390.073Z" fill="black"/>
<path d="M1722.54 390.073V98.9797C1722.54 98.1465 1723.21 97.4746 1724.04 97.4746H1780.21C1781.04 97.4746 1781.71 98.1465 1781.71 98.9797V390.073C1781.71 390.906 1781.04 391.578 1780.21 391.578H1724.04C1723.21 391.578 1722.54 390.906 1722.54 390.073Z" fill="black"/>
<defs>
<filter id="filter0_din_248_414" x="0.00033927" y="0" width="496.423" height="511.269" filterUnits="userSpaceOnUse" color-interpolation-filters="sRGB">
<feFlood flood-opacity="0" result="BackgroundImageFix"/>
<feColorMatrix in="SourceAlpha" type="matrix" values="0 0 0 0 0 0 0 0 0 0 0 0 0 0 0 0 0 0 127 0" result="hardAlpha"/>
<feOffset dy="3.71157"/>
<feGaussianBlur stdDeviation="1.85579"/>
<feComposite in2="hardAlpha" operator="out"/>
<feColorMatrix type="matrix" values="0 0 0 0 0 0 0 0 0 0 0 0 0 0 0 0 0 0 0.25 0"/>
<feBlend mode="normal" in2="BackgroundImageFix" result="effect1_dropShadow_248_414"/>
<feBlend mode="normal" in="SourceGraphic" in2="BackgroundImageFix" result="shape"/>
<feColorMatrix in="SourceAlpha" type="matrix" values="0 0 0 0 0 0 0 0 0 0 0 0 0 0 0 0 0 0 127 0" result="hardAlpha"/>
<feOffset dy="22.2694"/>
<feGaussianBlur stdDeviation="15.7742"/>
<feComposite in2="hardAlpha" operator="arithmetic" k2="-1" k3="1"/>
<feColorMatrix type="matrix" values="0 0 0 0 1 0 0 0 0 1 0 0 0 0 1 0 0 0 0.25 0"/>
<feBlend mode="normal" in2="shape" result="effect2_innerShadow_248_414"/>
<feTurbulence type="fractalNoise" baseFrequency="2.1554193496704102 2.1554193496704102" stitchTiles="stitch" numOctaves="3" result="noise" seed="4646" />
<feColorMatrix in="noise" type="luminanceToAlpha" result="alphaNoise" />
<feComponentTransfer in="alphaNoise" result="coloredNoise1">
<feFuncA type="discrete" tableValues="1 1 1 1 1 1 1 1 1 1 1 1 1 1 1 1 1 1 1 1 1 1 1 1 1 1 1 1 1 1 1 1 1 1 1 1 1 1 1 1 1 1 1 1 1 1 1 1 1 1 1 0 0 0 0 0 0 0 0 0 0 0 0 0 0 0 0 0 0 0 0 0 0 0 0 0 0 0 0 0 0 0 0 0 0 0 0 0 0 0 0 0 0 0 0 0 0 0 0 0 "/>
</feComponentTransfer>
<feComposite operator="in" in2="effect2_innerShadow_248_414" in="coloredNoise1" result="noise1Clipped" />
<feFlood flood-color="rgba(0, 0, 0, 0.25)" result="color1Flood" />
<feComposite operator="in" in2="noise1Clipped" in="color1Flood" result="color1" />
<feMerge result="effect3_noise_248_414">
<feMergeNode in="effect2_innerShadow_248_414" />
<feMergeNode in="color1" />
</feMerge>
<feBlend mode="normal" in="effect3_noise_248_414" in2="effect1_dropShadow_248_414" result="effect3_noise_248_414"/>
</filter>
<linearGradient id="paint0_linear_248_414" x1="248.212" y1="0" x2="248.212" y2="489" gradientUnits="userSpaceOnUse">
<stop stop-color="#6529FF"/>
<stop offset="1" stop-color="#7742FF"/>
</linearGradient>
</defs>
</svg>
