<svg width="1671" height="334" viewBox="0 0 1671 334" fill="none" xmlns="http://www.w3.org/2000/svg">
<rect y="228" width="21" height="30" rx="5" fill="#BB7D00"/>
<rect width="21" height="30" rx="5" transform="matrix(-1 0 0 1 231 228)" fill="#BB7D00"/>
<rect y="76" width="21" height="30" rx="5" fill="#BB7D00"/>
<rect width="21" height="30" rx="5" transform="matrix(-1 0 0 1 231 76)" fill="#BB7D00"/>
<rect y="152" width="21" height="30" rx="5" fill="#BB7D00"/>
<rect width="21" height="30" rx="5" transform="matrix(-1 0 0 1 231 152)" fill="#BB7D00"/>
<rect x="28" y="190" width="33" height="30" rx="5" fill="#BB7D00"/>
<rect width="33" height="30" rx="5" transform="matrix(-1 0 0 1 203 190)" fill="#BB7D00"/>
<rect x="43" y="152" width="18" height="30" rx="5" fill="#BB7D00"/>
<rect width="18" height="30" rx="5" transform="matrix(-1 0 0 1 188 152)" fill="#BB7D00"/>
<rect x="28" y="114" width="33" height="30" rx="5" fill="#BB7D00"/>
<rect width="33" height="30" rx="5" transform="matrix(-1 0 0 1 203 114)" fill="#BB7D00"/>
<rect width="21" height="30" rx="5" transform="matrix(-1 0 0 1 191 0)" fill="#BB7D00"/>
<rect width="21" height="30" rx="5" transform="matrix(-1 0 0 1 61 0)" fill="#BB7D00"/>
<rect width="15" height="30" rx="5" transform="matrix(-1 0 0 1 163 38)" fill="#BB7D00"/>
<rect width="16" height="30" rx="5" transform="matrix(-1 0 0 1 84 38)" fill="#BB7D00"/>
<rect x="68" y="190" width="95" height="30" rx="5" fill="#BB7D00"/>
<rect x="68" y="76" width="95" height="30" rx="5" fill="#BB7D00"/>
<rect x="68" y="152" width="95" height="30" rx="5" fill="#BB7D00"/>
<rect x="91" y="38" width="50" height="30" rx="5" fill="#BB7D00"/>
<rect x="68" y="114" width="95" height="30" rx="5" fill="#BB7D00"/>
<rect x="370" width="115" height="30" rx="5" fill="#BB7D00"/>
<rect x="349.104" y="38" width="42.2414" height="30" rx="5" fill="#BB7D00"/>
<rect x="463.759" y="38" width="42.2414" height="30" rx="5" fill="#BB7D00"/>
<rect x="331" y="76" width="42.2414" height="30" rx="5" fill="#BB7D00"/>
<rect x="481.862" y="76" width="42.2414" height="30" rx="5" fill="#BB7D00"/>
<rect x="331" y="114" width="42.2414" height="30" rx="5" fill="#BB7D00"/>
<rect x="481.862" y="114" width="42.2414" height="30" rx="5" fill="#BB7D00"/>
<rect x="331" y="152" width="42.2414" height="30" rx="5" fill="#BB7D00"/>
<rect x="481.862" y="152" width="42.2414" height="30" rx="5" fill="#BB7D00"/>
<rect x="349.965" y="190" width="42.2414" height="30" rx="5" fill="#BB7D00"/>
<rect x="462.897" y="190" width="42.2414" height="30" rx="5" fill="#BB7D00"/>
<rect x="370" y="228" width="115" height="30" rx="5" fill="#BB7D00"/>
<rect x="541" y="76" width="155" height="30" rx="5" fill="#BB7D00"/>
<rect x="541" y="114" width="41.3793" height="30" rx="5" fill="#BB7D00"/>
<rect x="672.896" y="114" width="42.2414" height="30" rx="5" fill="#BB7D00"/>
<rect x="672.896" y="152" width="42.2414" height="30" rx="5" fill="#BB7D00"/>
<rect x="541" y="152" width="42.2414" height="30" rx="5" fill="#BB7D00"/>
<rect x="672.896" y="190" width="42.2414" height="30" rx="5" fill="#BB7D00"/>
<rect x="541" y="190" width="60.3448" height="30" rx="5" fill="#BB7D00"/>
<rect x="601" y="228" width="95" height="30" rx="5" fill="#BB7D00"/>
<rect x="541" y="228" width="42.2414" height="30" rx="5" fill="#BB7D00"/>
<rect x="541" y="266" width="42" height="30" rx="5" fill="#BB7D00"/>
<rect x="541" y="304" width="42" height="30" rx="5" fill="#BB7D00"/>
<rect x="750" y="78" width="138" height="30" rx="5" fill="#BB7D00"/>
<rect x="732.034" y="114" width="41.3793" height="30" rx="5" fill="#BB7D00"/>
<rect x="864.793" y="114" width="41.3793" height="30" rx="5" fill="#BB7D00"/>
<rect x="732" y="152" width="174" height="30" rx="5" fill="#BB7D00"/>
<rect x="732" y="190" width="41" height="30" rx="5" fill="#BB7D00"/>
<rect x="732" y="228" width="133" height="30" rx="5" fill="#BB7D00"/>
<rect x="923" y="76" width="156" height="30" rx="5" fill="#BB7D00"/>
<rect x="923.069" y="114" width="41.3793" height="30" rx="5" fill="#BB7D00"/>
<rect x="1054.97" y="114" width="42.2414" height="30" rx="5" fill="#BB7D00"/>
<rect x="923.069" y="152" width="41.3793" height="30" rx="5" fill="#BB7D00"/>
<rect x="1054.97" y="152" width="42.2414" height="30" rx="5" fill="#BB7D00"/>
<rect x="923.069" y="190" width="41.3793" height="30" rx="5" fill="#BB7D00"/>
<rect x="1054.97" y="190" width="42.2414" height="30" rx="5" fill="#BB7D00"/>
<rect x="923.069" y="228" width="41.3793" height="30" rx="5" fill="#BB7D00"/>
<rect x="1054.97" y="228" width="42.2414" height="30" rx="5" fill="#BB7D00"/>
<rect x="1115" width="132" height="30" rx="5" fill="#BB7D00"/>
<rect x="1115" y="38" width="50" height="30" rx="5" fill="#BB7D00"/>
<rect x="1220" y="38" width="50" height="30" rx="5" fill="#BB7D00"/>
<rect x="1114.1" y="76" width="43.1034" height="30" rx="5" fill="#BB7D00"/>
<rect x="1220" y="76" width="50" height="30" rx="5" fill="#BB7D00"/>
<rect x="1115" y="114" width="155" height="30" rx="5" fill="#BB7D00"/>
<rect x="1114.1" y="152" width="43.1034" height="30" rx="5" fill="#BB7D00"/>
<rect x="1244" y="152" width="43.1034" height="30" rx="5" fill="#BB7D00"/>
<rect x="1114.1" y="190" width="43.1034" height="30" rx="5" fill="#BB7D00"/>
<rect x="1244" y="190" width="43.1034" height="30" rx="5" fill="#BB7D00"/>
<rect x="1115" y="228" width="172" height="30" rx="5" fill="#BB7D00"/>
<rect x="1305" y="76" width="43.1034" height="30" rx="5" fill="#BB7D00"/>
<rect x="1436.9" y="76" width="43.1034" height="30" rx="5" fill="#BB7D00"/>
<rect x="1305" y="114" width="43.1034" height="30" rx="5" fill="#BB7D00"/>
<rect x="1436.9" y="114" width="43.1034" height="30" rx="5" fill="#BB7D00"/>
<rect x="1305" y="152" width="43.1034" height="30" rx="5" fill="#BB7D00"/>
<rect x="1436.9" y="152" width="43.1034" height="30" rx="5" fill="#BB7D00"/>
<rect x="1305" y="190" width="43.1034" height="30" rx="5" fill="#BB7D00"/>
<rect x="1419.66" y="190" width="60.3448" height="30" rx="5" fill="#BB7D00"/>
<rect x="1323.97" y="228" width="100" height="30" rx="5" fill="#BB7D00"/>
<rect x="1436.9" y="228" width="43.1034" height="30" rx="5" fill="#BB7D00"/>
<rect x="1517.17" y="76" width="153" height="30" rx="5" fill="#BB7D00"/>
<rect x="1496.9" y="114" width="42.2414" height="30" rx="5" fill="#BB7D00"/>
<rect x="1627.93" y="114" width="42.2414" height="30" rx="5" fill="#BB7D00"/>
<rect x="1496.9" y="152" width="42.2414" height="30" rx="5" fill="#BB7D00"/>
<rect x="1627.93" y="152" width="42.2414" height="30" rx="5" fill="#BB7D00"/>
<rect x="1496.9" y="190" width="42.2414" height="30" rx="5" fill="#BB7D00"/>
<rect x="1611.55" y="190" width="58.6207" height="30" rx="5" fill="#BB7D00"/>
<rect x="1515" y="228" width="96.5517" height="30" rx="5" fill="#BB7D00"/>
<rect x="1627.93" y="228" width="42.2414" height="30" rx="5" fill="#BB7D00"/>
<rect x="1628.17" y="266" width="42" height="30" rx="5" fill="#BB7D00"/>
<rect x="1534.17" y="304" width="136" height="30" rx="5" fill="#BB7D00"/>
</svg>
